<svg width="96" height="225" viewBox="0 0 96 225" fill="none" xmlns="http://www.w3.org/2000/svg">
<path d="M14.3308 11.5109V29.8651C14.3308 32.2929 15.399 33.2155 17.0985 33.2155C18.7979 33.2155 19.8662 32.2929 19.8662 29.8651V11.5109C19.8662 9.08309 18.7979 8.16053 17.0985 8.16053C15.399 8.16053 14.3308 9.08309 14.3308 11.5109ZM8.98961 29.5252V11.8508C8.98961 6.41251 11.8544 3.30492 17.0985 3.30492C22.3425 3.30492 25.2073 6.41251 25.2073 11.8508V29.5252C25.2073 34.9635 22.3425 38.0711 17.0985 38.0711C11.8544 38.0711 8.98961 34.9635 8.98961 29.5252ZM30.7177 37.6826H28.6783V32.5357H33.8253V37.1485L31.4946 42.5382H29.3096L30.7177 37.6826ZM37.3479 29.5252V12.1421C37.3479 6.41251 39.9699 3.30492 45.5053 3.30492C50.7494 3.30492 53.4685 6.41251 53.4685 11.8508V12.7248H48.4187V11.5109C48.4187 9.08309 47.3504 8.16053 45.651 8.16053C43.7573 8.16053 42.689 9.08309 42.689 12.3363V18.5515C43.6116 16.6093 45.2625 15.541 47.6418 15.541C51.5748 15.541 53.5656 18.3087 53.5656 23.31V29.5252C53.5656 34.9635 50.7008 38.0711 45.4567 38.0711C40.2127 38.0711 37.3479 34.9635 37.3479 29.5252ZM45.4567 20.3967C43.7573 20.3967 42.689 21.3192 42.689 23.747V29.8651C42.689 32.2929 43.7573 33.1669 45.4567 33.1669C47.1562 33.1669 48.2244 32.2929 48.2244 29.8651V23.747C48.2244 21.3192 47.1562 20.3967 45.4567 20.3967ZM72.6231 11.8508V29.2339C72.6231 34.9635 70.0011 38.0711 64.4657 38.0711C59.2216 38.0711 56.5025 34.9635 56.5025 29.5252V28.6512H61.5523V29.8651C61.5523 32.2929 62.6205 33.2155 64.32 33.2155C66.2137 33.2155 67.2819 32.2929 67.2819 29.0396V22.8245C66.3594 24.7667 64.7085 25.8349 62.3292 25.8349C58.3962 25.8349 56.4054 23.0672 56.4054 18.066V11.8508C56.4054 6.41251 59.2702 3.30492 64.5142 3.30492C69.7583 3.30492 72.6231 6.41251 72.6231 11.8508ZM64.5142 20.9793C66.2137 20.9793 67.2819 20.0568 67.2819 17.629V11.5109C67.2819 9.08309 66.2137 8.20908 64.5142 8.20908C62.8148 8.20908 61.7465 9.08309 61.7465 11.5109V17.629C61.7465 20.0568 62.8148 20.9793 64.5142 20.9793ZM77.3749 21.0584C78.18 21.0584 78.7563 21.3189 79.1036 21.8399C79.4509 22.3451 79.6246 22.9766 79.6246 23.7344V28.7785C79.6246 29.5363 79.4509 30.1757 79.1036 30.6967C78.7563 31.2019 78.18 31.4545 77.3749 31.4545C76.9802 31.4545 76.6408 31.3834 76.3566 31.2413C76.0724 31.0993 75.8435 30.9098 75.6698 30.673C75.4962 30.4362 75.362 30.1599 75.2673 29.8442C75.1883 29.5126 75.1489 29.1574 75.1489 28.7785V23.7344C75.1489 23.3555 75.1883 23.0082 75.2673 22.6924C75.362 22.3609 75.4962 22.0767 75.6698 21.8399C75.8435 21.6031 76.0724 21.4137 76.3566 21.2716C76.6408 21.1295 76.9802 21.0584 77.3749 21.0584ZM85.0002 21.0821L78.4642 37.6826H77.7538L84.2898 21.0821H85.0002ZM77.3749 21.7452C76.8065 21.7452 76.4118 21.9425 76.1908 22.3372C75.9856 22.7161 75.883 23.174 75.883 23.7107V28.8259C75.883 29.3468 75.9856 29.8047 76.1908 30.1994C76.4118 30.5783 76.8065 30.7677 77.3749 30.7677C77.9274 30.7677 78.3142 30.5783 78.5353 30.1994C78.7563 29.8047 78.8668 29.3468 78.8668 28.8259V23.7107C78.8668 23.174 78.7563 22.7161 78.5353 22.3372C78.3142 21.9425 77.9274 21.7452 77.3749 21.7452ZM85.4502 27.3576C85.8448 27.3576 86.1843 27.4287 86.4684 27.5708C86.7526 27.7128 86.9815 27.9102 87.1552 28.1628C87.3447 28.3996 87.4788 28.6838 87.5578 29.0153C87.6367 29.3311 87.6762 29.6784 87.6762 30.0573V35.0303C87.6762 35.4092 87.6367 35.7644 87.5578 36.096C87.4788 36.4117 87.3447 36.6959 87.1552 36.9485C86.9815 37.1853 86.7526 37.3748 86.4684 37.5168C86.1843 37.6589 85.8448 37.73 85.4502 37.73C85.0397 37.73 84.6924 37.6589 84.4082 37.5168C84.124 37.3748 83.8951 37.1853 83.7214 36.9485C83.5478 36.6959 83.4136 36.4117 83.3189 36.096C83.2399 35.7644 83.2004 35.4092 83.2004 35.0303V30.0573C83.2004 29.6784 83.2399 29.3311 83.3189 29.0153C83.4136 28.6838 83.5478 28.3996 83.7214 28.1628C83.8951 27.9102 84.124 27.7128 84.4082 27.5708C84.6924 27.4287 85.0397 27.3576 85.4502 27.3576ZM85.4502 28.0681C84.8976 28.0681 84.5108 28.2575 84.2898 28.6364C84.0688 29.0153 83.9582 29.4731 83.9582 30.0099V35.0777C83.9582 35.5987 84.0688 36.0565 84.2898 36.4512C84.5108 36.8459 84.8976 37.0432 85.4502 37.0432C86.0185 37.0432 86.4053 36.8459 86.6105 36.4512C86.8316 36.0565 86.9421 35.5987 86.9421 35.0777V30.0099C86.9421 29.4731 86.8316 29.0153 86.6105 28.6364C86.4053 28.2575 86.0185 28.0681 85.4502 28.0681Z" fill="#38B0B0"/>
<path d="M29.5351 107.129V186.309C29.5351 196.782 34.1434 200.762 41.4748 200.762C48.8062 200.762 53.4146 196.782 53.4146 186.309V107.129C53.4146 96.6561 48.8062 92.6761 41.4748 92.6761C34.1434 92.6761 29.5351 96.6561 29.5351 107.129ZM6.49353 184.842V108.596C6.49353 85.1353 18.8522 71.7293 41.4748 71.7293C64.0975 71.7293 76.4561 85.1353 76.4561 108.596V184.842C76.4561 208.303 64.0975 221.709 41.4748 221.709C18.8522 221.709 6.49353 208.303 6.49353 184.842Z" fill="#38B0B0"/>
<path d="M85.2768 219.933V205.617H89.0461C90.7971 205.617 92.0937 205.971 92.9357 206.68C93.7912 207.388 94.2189 208.418 94.2189 209.768C94.2189 210.676 94.0117 211.458 93.5974 212.113C93.183 212.755 92.5682 213.249 91.7528 213.597C90.9508 213.944 89.9551 214.118 88.7654 214.118H87.0813V219.933H85.2768ZM83.5325 217.206V215.903H90.3895V217.206H83.5325ZM83.5325 214.118V212.594H88.1239V214.118H83.5325ZM88.5048 212.594C89.3201 212.594 90.0085 212.508 90.5699 212.334C91.1447 212.16 91.5857 211.873 91.8932 211.472C92.2006 211.071 92.3543 210.523 92.3543 209.828C92.3543 208.919 92.0736 208.244 91.5122 207.803C90.9508 207.362 90.0753 207.141 88.8857 207.141H87.0813V212.594H88.5048Z" fill="#38B0B0"/>
</svg>
