<svg width="37" height="21" viewBox="0 0 37 21" fill="none" xmlns="http://www.w3.org/2000/svg">
<path fill-rule="evenodd" clip-rule="evenodd" d="M7.12891 11.4165L9.59474 13.0858V16.184L7.12891 20.7534V11.4023V11.4165Z" fill="#38B0B0"/>
<path fill-rule="evenodd" clip-rule="evenodd" d="M5.08359 10.1008L7.53541 11.5721L0.25 16.1415L2.63177 11.6711L5.08359 10.1008Z" fill="#38B0B0"/>
<path fill-rule="evenodd" clip-rule="evenodd" d="M16.5299 5.87092L11.8364 5.84263L9.58073 4.44209L7.12891 0L16.5299 5.87092Z" fill="#38B0B0"/>
<path fill-rule="evenodd" clip-rule="evenodd" d="M7.12925 0L9.58106 4.44209V10.5535L7.11523 9.77544V0H7.12925Z" fill="#38B0B0"/>
<path fill-rule="evenodd" clip-rule="evenodd" d="M0.236328 4.47046L2.64612 8.99743V11.6712L0.26435 16.1416V4.47046H0.236328Z" fill="#38B0B0"/>
<path fill-rule="evenodd" clip-rule="evenodd" d="M0.236328 4.47045L16.5024 14.7552L11.8369 14.7835L2.64612 8.98327L0.236328 4.4563V4.47045Z" fill="#38B0B0"/>
<path fill-rule="evenodd" clip-rule="evenodd" d="M11.8374 5.84277L16.5308 5.87107L9.5957 10.2849V7.2716L11.8514 5.84277H11.8374Z" fill="#38B0B0"/>
<path fill-rule="evenodd" clip-rule="evenodd" d="M25.3703 6.57831C25.9448 6.04074 26.7153 5.77195 27.4859 5.80024C28.2845 5.78609 29.0971 5.84268 29.8957 5.74365C29.7276 6.29538 29.3773 6.76222 29.1391 7.28565C28.5647 7.28565 27.9903 7.28565 27.4159 7.28565C26.6733 7.34224 25.9728 7.9647 25.9027 8.74277C26.5752 8.04958 27.626 8.00714 28.4947 8.23349C29.0831 8.43154 29.6015 8.88424 29.8116 9.5067C30.0078 10.0443 30.0358 10.6243 29.9097 11.1902C29.7136 11.9541 29.1251 12.5483 28.4246 12.8171C27.598 13.1424 26.6453 13.1566 25.8327 12.8171C25.0481 12.4917 24.5017 11.7277 24.3196 10.8931C24.1094 10.1433 24.1374 9.054 24.3476 8.29008C24.5297 7.63932 24.894 7.03101 25.3703 6.57831ZM27.3598 9.47841C26.9255 9.39353 26.4211 9.57743 26.197 9.97355C25.7906 10.695 26.3511 11.7843 27.2758 11.6429C28.2845 11.5014 28.5507 9.81793 27.3598 9.47841ZM20.831 7.61103C21.7416 7.38468 22.7784 7.44127 23.549 8.03543C23.2968 8.45984 23.0586 8.91254 22.8204 9.35109C22.4422 9.22376 22.0779 9.01156 21.6576 9.02571C21.2233 9.02571 20.7469 9.18132 20.5087 9.57743C20.2425 9.98769 20.2285 10.5536 20.4947 10.9638C20.7189 11.3599 21.1672 11.5438 21.6015 11.5863C21.9378 11.5438 22.274 11.5014 22.5823 11.3599C22.6523 11.3175 22.7364 11.3175 22.8204 11.3175C22.9746 11.756 23.2968 12.1239 23.4229 12.5766C22.5823 13.0434 21.5875 13.1283 20.6769 12.9019C20.0464 12.7039 19.4439 12.3361 19.0797 11.756C18.5052 10.8506 18.5333 9.56329 19.1918 8.71448C19.584 8.16275 20.2005 7.80908 20.831 7.62518V7.61103ZM30.7924 7.63932C32.5577 7.63932 34.323 7.63932 36.0883 7.63932C36.0743 9.37938 36.0883 11.1053 36.0883 12.8453C35.4999 12.8453 34.8974 12.8453 34.309 12.8453C34.337 11.7136 34.281 10.5677 34.309 9.43597C34.309 9.35109 34.295 9.26621 34.2529 9.19547C33.7065 9.19547 33.1741 9.19547 32.6277 9.19547C32.5997 10.4121 32.6277 11.6287 32.6277 12.8453C32.0253 12.8453 31.4228 12.8453 30.8204 12.8453C30.8204 11.1053 30.8204 9.37938 30.8204 7.63932H30.7924Z" fill="#38B0B0"/>
<path fill-rule="evenodd" clip-rule="evenodd" d="M9.58073 16.184L11.8364 14.7834L16.5019 14.7551L7.12891 20.7675L9.59474 16.1981L9.58073 16.184Z" fill="#38B0B0"/>
</svg>
