<svg width="39" height="35" viewBox="0 0 39 35" fill="none" xmlns="http://www.w3.org/2000/svg">
<path d="M29.5078 20.9834V13.8314C29.5078 13.4967 29.379 13.1757 29.1499 12.939C28.9208 12.7023 28.61 12.5693 28.286 12.5693H2.22176C1.89773 12.5693 1.58697 12.7023 1.35785 12.939C1.12872 13.1757 1 13.4967 1 13.8314V20.9834C1 24.3308 2.28721 27.541 4.57846 29.9079C6.8697 32.2748 9.9773 33.6046 13.2176 33.6046H17.2902C20.5305 33.6046 23.6381 32.2748 25.9293 29.9079C28.2206 27.541 29.5078 24.3308 29.5078 20.9834Z" stroke="black" stroke-width="1.28163" stroke-linecap="round" stroke-linejoin="round"/>
<path d="M27.4707 12.5701H32.5614C33.9115 12.5701 35.2063 13.1241 36.161 14.1103C37.1157 15.0966 37.652 16.4342 37.652 17.8289C37.652 19.2236 37.1157 20.5612 36.161 21.5474C35.2063 22.5336 33.9115 23.0877 32.5614 23.0877H29.507" stroke="black" stroke-width="1.28163" stroke-linecap="round" stroke-linejoin="round"/>
<path d="M12.923 27.2V16.7744H15.5101C16.1364 16.7744 16.6341 16.9031 17.0031 17.1605C17.3807 17.4094 17.6552 17.774 17.8268 18.2546C17.9985 18.7265 18.0843 19.3014 18.0843 19.9793C18.0843 20.5971 17.9856 21.1334 17.7882 21.5882C17.5995 22.0344 17.3163 22.3819 16.9387 22.6307C16.5612 22.871 16.0893 22.9911 15.5229 22.9911H14.3774V27.2H12.923ZM12.2022 25.0505V24.2782H17.1318V25.0505H12.2022ZM14.3774 21.9486H15.0467C15.4671 21.9486 15.7975 21.8928 16.0378 21.7812C16.278 21.6697 16.4496 21.4723 16.5526 21.1892C16.6556 20.906 16.7071 20.507 16.7071 19.9921C16.7071 19.4087 16.6685 18.9625 16.5912 18.6536C16.5226 18.3361 16.3724 18.1173 16.1407 17.9971C15.9091 17.877 15.5487 17.8169 15.0596 17.8169H14.3774V21.9486Z" fill="black"/>
<path d="M19.3267 8.36233C19.3267 6.2588 20.7806 4.15528 23.6904 4.15528C25.2334 4.15528 26.7131 3.52211 27.8041 2.39506M11.1816 8.36233V7.31057C11.1816 5.6369 11.8252 4.03178 12.9709 2.84832C14.1165 1.66486 15.6703 1 17.2904 1" stroke="black" stroke-width="1.28163" stroke-linecap="round" stroke-linejoin="round"/>
</svg>
