<svg width="26" height="19" viewBox="0 0 26 19" fill="none" xmlns="http://www.w3.org/2000/svg">
<path fill-rule="evenodd" clip-rule="evenodd" d="M0 2.97539C0 1.71632 1.00875 0.697754 2.25567 0.697754H23.6636C24.9105 0.697754 25.9192 1.71632 25.9192 2.97539V16.627C25.9192 17.8861 24.9105 18.9047 23.6636 18.9047H2.25567C1.00875 18.9047 0 17.8861 0 16.627V2.97539ZM14.0804 13.5713C14.0804 12.9772 14.5568 12.5103 15.1312 12.5103H20.4552C21.0436 12.5103 21.506 12.9913 21.506 13.5713C21.506 14.1514 21.0296 14.6323 20.4552 14.6323H15.1312C14.5428 14.6323 14.0804 14.1514 14.0804 13.5713ZM3.65671 4.40421C3.04026 4.40421 2.53588 4.9135 2.53588 5.53596C2.53588 6.15842 3.04026 6.6677 3.65671 6.6677H22.2485C22.865 6.6677 23.3693 6.15842 23.3693 5.53596C23.3693 4.9135 22.865 4.40421 22.2485 4.40421H3.65671Z" fill="#38B0B0"/>
</svg>
