<svg width="27" height="29" viewBox="0 0 27 29" fill="none" xmlns="http://www.w3.org/2000/svg">
<path d="M26.9094 15.2839L22.9877 3.02859C22.9229 2.82645 22.8029 2.65959 22.6489 2.55775C22.4949 2.45591 22.3171 2.42571 22.1469 2.47251L14.2164 4.6754V0.919149C14.2164 0.675375 14.1389 0.441586 14.001 0.269212C13.8631 0.0968385 13.6761 0 13.4811 0C13.286 0 13.099 0.0968385 12.9611 0.269212C12.8232 0.441586 12.7457 0.675375 12.7457 0.919149V5.08442L4.49777 7.38229C4.38092 7.41475 4.27218 7.48236 4.18098 7.57927C4.08979 7.67618 4.01889 7.79945 3.97446 7.93838L0.0526987 20.1937C0.0189238 20.3 0.00106127 20.4132 0 20.5277C0 23.8764 2.85676 25.1234 4.65709 25.1234C6.45743 25.1234 9.31419 23.8764 9.31419 20.5277C9.31388 20.4107 9.29601 20.2948 9.26149 20.186L5.66082 8.93566L12.7457 6.96715V26.9617H10.5397C10.3447 26.9617 10.1577 27.0585 10.0198 27.2309C9.88188 27.4033 9.80441 27.6371 9.80441 27.8808C9.80441 28.1246 9.88188 28.3584 10.0198 28.5308C10.1577 28.7031 10.3447 28.8 10.5397 28.8H16.4224C16.6174 28.8 16.8044 28.7031 16.9423 28.5308C17.0802 28.3584 17.1577 28.1246 17.1577 27.8808C17.1577 27.6371 17.0802 27.4033 16.9423 27.2309C16.8044 27.0585 16.6174 26.9617 16.4224 26.9617H14.2164V6.55812L21.1052 4.64476L17.7006 15.2839C17.6661 15.3927 17.6482 15.5085 17.6479 15.6255C17.6479 18.9743 20.5047 20.2213 22.305 20.2213C24.1054 20.2213 26.9621 18.9743 26.9621 15.6255C26.9618 15.5085 26.9439 15.3927 26.9094 15.2839ZM4.65709 23.2851C3.90773 23.2777 3.17158 23.0377 2.51483 22.5865C1.85671 22.1071 1.51601 21.4866 1.47434 20.6916L4.66077 10.7479L7.8472 20.6916C7.72832 22.8025 5.46351 23.2851 4.65709 23.2851ZM22.305 18.383C21.5557 18.3756 20.8195 18.1355 20.1628 17.6844C19.5046 17.2049 19.1639 16.5845 19.1223 15.7894L22.3087 5.84579L25.4951 15.7894C25.3763 17.9004 23.1114 18.383 22.305 18.383Z" fill="#38B0B0"/>
</svg>
