<svg width="42" height="38" viewBox="0 0 42 38" fill="none" xmlns="http://www.w3.org/2000/svg">
<path d="M32.1641 20.9834V13.8314C32.1641 13.4967 32.0234 13.1757 31.7729 12.939C31.5224 12.7023 31.1827 12.5693 30.8285 12.5693H2.3356C1.98138 12.5693 1.64166 12.7023 1.39119 12.939C1.14071 13.1757 1 13.4967 1 13.8314V20.9834C1 24.3308 2.40715 27.541 4.91189 29.9079C7.41663 32.2748 10.8138 33.6046 14.356 33.6046H18.808C22.3503 33.6046 25.7474 32.2748 28.2522 29.9079C30.7569 27.541 32.1641 24.3308 32.1641 20.9834Z" stroke="#333333" stroke-width="1.28364" stroke-linecap="round" stroke-linejoin="round"/>
<path d="M29.9375 12.5703H35.5025C36.9784 12.5703 38.3939 13.1244 39.4376 14.1106C40.4812 15.0968 41.0675 16.4344 41.0675 17.8291C41.0675 19.2238 40.4812 20.5614 39.4376 21.5477C38.3939 22.5339 36.9784 23.0879 35.5025 23.0879H32.1635" stroke="#333333" stroke-width="1.28364" stroke-linecap="round" stroke-linejoin="round"/>
<path d="M19.8846 22.1442C19.8846 23.4755 19.7793 24.6639 19.5687 25.7093C19.3656 26.7548 19.0347 27.6423 18.5759 28.3719C18.1246 29.1015 17.5304 29.658 16.7933 30.0416C16.0562 30.4252 15.1612 30.617 14.1082 30.617C12.7844 30.617 11.6976 30.2823 10.8477 29.6129C9.9978 28.936 9.36977 27.9657 8.96362 26.7022C8.55747 25.4311 8.3544 23.9118 8.3544 22.1442C8.3544 20.3617 8.53867 18.8386 8.90721 17.5751C9.28328 16.304 9.8925 15.3299 10.7349 14.653C11.5773 13.9761 12.7017 13.6376 14.1082 13.6376C15.4244 13.6376 16.5075 13.9761 17.3574 14.653C18.2148 15.3224 18.8504 16.2927 19.2641 17.5638C19.6777 18.8273 19.8846 20.3542 19.8846 22.1442ZM11.818 22.1442C11.818 23.4003 11.8856 24.4495 12.021 25.2919C12.1639 26.1268 12.4009 26.7548 12.7318 27.176C13.0627 27.5972 13.5215 27.8078 14.1082 27.8078C14.6873 27.8078 15.1424 27.601 15.4733 27.1873C15.8118 26.7661 16.0525 26.1381 16.1954 25.3032C16.3383 24.4608 16.4097 23.4078 16.4097 22.1442C16.4097 20.8882 16.3383 19.839 16.1954 18.9966C16.0525 18.1542 15.8118 17.5224 15.4733 17.1012C15.1424 16.6725 14.6873 16.4581 14.1082 16.4581C13.5215 16.4581 13.0627 16.6725 12.7318 17.1012C12.4009 17.5224 12.1639 18.1542 12.021 18.9966C11.8856 19.839 11.818 20.8882 11.818 22.1442Z" fill="#38B0B0"/>
<path d="M21.3242 30.3914V24.7767H22.7175C23.0548 24.7767 23.3229 24.846 23.5216 24.9847C23.7249 25.1187 23.8728 25.3151 23.9652 25.5739C24.0576 25.828 24.1038 26.1376 24.1038 26.5027C24.1038 26.8354 24.0507 27.1242 23.9444 27.3692C23.8427 27.6095 23.6902 27.7966 23.4869 27.9306C23.2836 28.06 23.0294 28.1247 22.7244 28.1247H22.1075V30.3914H21.3242ZM20.9361 29.2338V28.8179H23.5909V29.2338H20.9361ZM22.1075 27.5632H22.468C22.6944 27.5632 22.8723 27.5332 23.0017 27.4731C23.1311 27.4131 23.2235 27.3068 23.279 27.1543C23.3344 27.0018 23.3621 26.7869 23.3621 26.5096C23.3621 26.1954 23.3414 25.9551 23.2998 25.7888C23.2628 25.6178 23.1819 25.4999 23.0572 25.4352C22.9324 25.3705 22.7383 25.3382 22.4749 25.3382H22.1075V27.5632Z" fill="#333333"/>
<path d="M21.0329 8.36233C21.0329 6.2588 22.6223 4.15528 25.8033 4.15528C27.49 4.15528 29.1076 3.52211 30.3002 2.39506M12.1289 8.36233V7.31057C12.1289 5.6369 12.8325 4.03178 14.0849 2.84832C15.3372 1.66486 17.0358 1 18.8069 1" stroke="#333333" stroke-width="1.28364" stroke-linecap="round" stroke-linejoin="round"/>
</svg>
