<svg width="26" height="21" viewBox="0 0 26 21" fill="none" xmlns="http://www.w3.org/2000/svg">
<path d="M5.69141 6.11841H10.3846" stroke="#333333" stroke-width="1.28364" stroke-linecap="round" stroke-linejoin="round"/>
<path d="M23.0938 7.24805H20.0409C17.9466 7.24805 16.25 8.7651 16.25 10.6368C16.25 12.5086 17.9477 14.0256 20.0397 14.0256H23.0938C23.1923 14.0256 23.2405 14.0256 23.2815 14.0234C23.9151 13.9861 24.4196 13.5354 24.4607 12.9695C24.463 12.9333 24.463 12.8893 24.463 12.8023V8.4714C24.463 8.38443 24.463 8.34037 24.4607 8.30422C24.4184 7.73829 23.9151 7.28758 23.2815 7.25031C23.2416 7.24805 23.1923 7.24805 23.0938 7.24805Z" stroke="#333333" stroke-width="1.28364"/>
<path d="M23.2514 7.24786C23.1599 5.13324 22.8666 3.83646 21.9174 2.92375C20.5435 1.59985 18.3306 1.59985 13.9062 1.59985H10.3863C5.96184 1.59985 3.74901 1.59985 2.37509 2.92375C1.00117 4.24764 1 6.37693 1 10.6367C1 14.8964 1 17.0268 2.37509 18.3496C3.75019 19.6723 5.96184 19.6735 10.3863 19.6735H13.9062C18.3306 19.6735 20.5435 19.6735 21.9174 18.3496C22.8666 17.4369 23.1611 16.1401 23.2514 14.0255" stroke="#333333" stroke-width="1.28364"/>
<path d="M19.7617 10.6367H19.7732" stroke="#333333" stroke-width="1.28364" stroke-linecap="round" stroke-linejoin="round"/>
</svg>
