<svg width="25" height="29" viewBox="0 0 25 29" fill="none" xmlns="http://www.w3.org/2000/svg">
<path d="M16.4577 15.5488C16.4577 19.5528 15.8441 22.5167 14.617 24.4407C13.4002 26.3647 11.5542 27.3266 9.07905 27.3266C6.69749 27.3266 4.88792 26.3387 3.65034 24.3627C2.41276 22.3763 1.79397 19.4384 1.79397 15.5488C1.79397 11.5761 2.39196 8.63294 3.58794 6.71937C4.79432 4.80581 6.62469 3.84902 9.07905 3.84902C11.4814 3.84902 13.3118 4.84221 14.5702 6.82857C15.8285 8.80454 16.4577 11.7113 16.4577 15.5488ZM3.47874 15.5488C3.47874 19.0848 3.94154 21.7003 4.86712 23.3955C5.79271 25.0803 7.19668 25.9227 9.07905 25.9227C11.0446 25.9227 12.4746 25.0491 13.369 23.3019C14.2738 21.5547 14.7262 18.9704 14.7262 15.5488C14.7262 12.1793 14.2738 9.62093 13.369 7.87376C12.4746 6.12658 11.0446 5.253 9.07905 5.253C7.11349 5.253 5.68871 6.12658 4.80472 7.87376C3.92074 9.62093 3.47874 12.1793 3.47874 15.5488ZM19.0568 27.0146V19.2512H20.9833C21.4497 19.2512 21.8203 19.3471 22.0951 19.5388C22.3762 19.7241 22.5807 19.9956 22.7085 20.3534C22.8363 20.7049 22.9002 21.133 22.9002 21.6378C22.9002 22.0978 22.8267 22.4972 22.6797 22.8358C22.5392 23.1681 22.3283 23.4269 22.0472 23.6122C21.766 23.7911 21.4146 23.8805 20.9929 23.8805H20.1399V27.0146H19.0568ZM18.5201 25.414V24.839H22.1909V25.414H18.5201ZM20.1399 23.1042H20.6382C20.9513 23.1042 21.1973 23.0626 21.3762 22.9796C21.5552 22.8965 21.683 22.7496 21.7596 22.5387C21.8363 22.3278 21.8746 22.0307 21.8746 21.6473C21.8746 21.2128 21.8459 20.8806 21.7884 20.6506C21.7373 20.4141 21.6254 20.2512 21.4529 20.1617C21.2804 20.0723 21.012 20.0276 20.6478 20.0276H20.1399V23.1042Z" fill="#333333"/>
</svg>
