<svg width="24" height="24" viewBox="0 0 24 24" fill="none" xmlns="http://www.w3.org/2000/svg">
<path d="M5.21766 9.29561V16.2801M11.9659 9.29561V16.2801M8.59179 10.7971V14.7786M18.7142 9.29561V16.2801M15.3401 10.7971V14.7786M22.9318 18.2708V21.6449C22.9318 22.0924 22.7541 22.5215 22.4377 22.8379C22.1213 23.1542 21.6922 23.332 21.2448 23.332H17.8706M17.8706 1.40015H21.2448C21.6922 1.40015 22.1213 1.57789 22.4377 1.89428C22.7541 2.21066 22.9318 2.63977 22.9318 3.08721V6.46134M1 6.46134V3.08721C1 2.63977 1.17774 2.21066 1.49413 1.89428C1.81052 1.57789 2.23963 1.40015 2.68706 1.40015H6.06119M6.06119 23.332H2.68706C2.23963 23.332 1.81052 23.1542 1.49413 22.8379C1.17774 22.5215 1 22.0924 1 21.6449V18.2708" stroke="#333333" stroke-width="1.28364" stroke-linecap="round" stroke-linejoin="round"/>
</svg>
