<svg width="34" height="35" viewBox="0 0 34 35" fill="none" xmlns="http://www.w3.org/2000/svg">
<path d="M16.811 3.86426C14.3276 3.86472 11.8909 4.53884 9.76045 5.81481C7.62999 7.09077 5.88556 8.92078 4.71302 11.1099C3.54048 13.299 2.98375 15.7651 3.10214 18.2456C3.22053 20.7262 4.0096 23.1281 5.3853 25.1956L3.08398 31.3161L10.7905 29.9217C12.6465 30.8297 14.6836 31.307 16.7497 31.318C18.8159 31.329 20.8579 30.8735 22.7235 29.9853C24.5891 29.0971 26.2301 27.7993 27.5242 26.1885C28.8183 24.5777 29.732 22.6956 30.1973 20.6824C30.6626 18.6693 30.6674 16.5771 30.2114 14.5618C29.7554 12.5465 28.8504 10.6602 27.5638 9.04346C26.2771 7.42673 24.6421 6.1213 22.7807 5.22453C20.9192 4.32776 18.8772 3.86278 16.811 3.86426Z" stroke="#333333" stroke-width="1.28364" stroke-linecap="round" stroke-linejoin="round"/>
<path d="M13.6426 14.4234C13.6426 13.7969 13.8284 13.1844 14.1764 12.6635C14.5245 12.1425 15.0193 11.7365 15.5981 11.4967C16.1769 11.257 16.8139 11.1943 17.4283 11.3165C18.0428 11.4387 18.6073 11.7404 19.0503 12.1834C19.4933 12.6265 19.795 13.1909 19.9172 13.8054C20.0395 14.4199 19.9767 15.0568 19.737 15.6356C19.4972 16.2145 19.0912 16.7092 18.5703 17.0573C18.0493 17.4054 17.4369 17.5911 16.8103 17.5911V19.703M16.8146 24.9826C16.6746 24.9826 16.5403 24.927 16.4413 24.828C16.3423 24.7289 16.2866 24.5947 16.2866 24.4546C16.2866 24.3146 16.3423 24.1803 16.4413 24.0813C16.5403 23.9823 16.6746 23.9267 16.8146 23.9267C16.9546 23.9267 17.0889 23.9823 17.1879 24.0813C17.2869 24.1803 17.3426 24.3146 17.3426 24.4546C17.3426 24.5947 17.2869 24.7289 17.1879 24.828C17.0889 24.927 16.9546 24.9826 16.8146 24.9826Z" stroke="#333333" stroke-width="1.28364" stroke-linecap="round" stroke-linejoin="round"/>
</svg>
