<svg width="40" height="39" viewBox="0 0 40 39" fill="none" xmlns="http://www.w3.org/2000/svg">
<path d="M34.3079 13.8C35.3465 12.8768 36.0002 11.5352 36.0002 10.0419C36.0002 7.25734 33.7272 5 30.9233 5C29.4523 5 28.1274 5.62128 27.2002 6.61404" stroke="#38B0B0" stroke-width="2.08" stroke-linecap="round"/>
<path d="M21.6 8.20001C29.552 8.20001 36 13.5728 36 20.2C36 23.4944 34.408 26.4784 31.8288 28.6464C31.6355 28.8043 31.4791 29.0025 31.3705 29.2272C31.2618 29.4519 31.2037 29.6977 31.2 29.9472V33.8H28L26.7296 31.9872C26.6313 31.8517 26.4945 31.749 26.3369 31.6924C26.1794 31.6359 26.0084 31.6282 25.8464 31.6704C23.0604 32.3837 20.1396 32.3837 17.3536 31.6704C17.1916 31.6282 17.0206 31.6359 16.8631 31.6924C16.7055 31.749 16.5687 31.8517 16.4704 31.9872L15.2 33.8H12V29.984C12 29.725 11.9371 29.4698 11.8167 29.2404C11.6963 29.0111 11.522 28.8144 11.3088 28.6672C9.5888 27.4832 4 25.1632 4 22.6928V20.2C4 19.2528 4.7168 18.4864 5.6 18.4864C6.5712 18.4864 7.3632 18.1088 7.6832 17.1056C9.3216 11.9776 14.9312 8.20001 21.6 8.20001Z" stroke="#333333" stroke-width="2.08" stroke-linecap="round" stroke-linejoin="round"/>
<path d="M23.9998 13C23.0129 12.4802 21.9152 12.2058 20.7998 12.2C19.6862 12.2 18.611 12.48 17.5998 13M12.7998 17.8H12.8142" stroke="#333333" stroke-width="2.08" stroke-linecap="round" stroke-linejoin="round"/>
</svg>
