<svg width="41" height="36" viewBox="0 0 41 36" fill="none" xmlns="http://www.w3.org/2000/svg">
<path d="M31.2491 21.9835V14.8316C31.2491 14.4968 31.1161 14.1758 30.8794 13.9391C30.6428 13.7024 30.3217 13.5695 29.987 13.5695H3.06192C2.72718 13.5695 2.40616 13.7024 2.16947 13.9391C1.93278 14.1758 1.7998 14.4968 1.7998 14.8316V21.9835C1.7998 25.3309 3.12953 28.5411 5.49645 30.908C7.86337 33.275 11.0736 34.6047 14.4209 34.6047H18.628C21.9753 34.6047 25.1855 33.275 27.5525 30.908C29.9194 28.5411 31.2491 25.3309 31.2491 21.9835Z" stroke="#333333" stroke-width="2.08" stroke-linecap="round" stroke-linejoin="round"/>
<path d="M29.1455 13.5703H34.4043C35.799 13.5703 37.1366 14.1243 38.1228 15.1105C39.1091 16.0967 39.6631 17.4343 39.6631 18.8291C39.6631 20.2238 39.1091 21.5614 38.1228 22.5476C37.1366 23.5338 35.799 24.0879 34.4043 24.0879H31.249" stroke="#333333" stroke-width="2.08" stroke-linecap="round" stroke-linejoin="round"/>
<path d="M13.6091 30.3975V16.8112H16.9806C17.7968 16.8112 18.4454 16.979 18.9262 17.3144C19.4183 17.6387 19.7761 18.114 19.9997 18.7402C20.2234 19.3552 20.3352 20.1044 20.3352 20.9878C20.3352 21.7929 20.2066 22.4918 19.9494 23.0844C19.7034 23.6659 19.3344 24.1188 18.8424 24.443C18.3504 24.7561 17.7353 24.9127 16.9973 24.9127H15.5045V30.3975H13.6091ZM12.6698 27.5964V26.59H19.094V27.5964H12.6698ZM15.5045 23.5541H16.3767C16.9246 23.5541 17.3552 23.4814 17.6683 23.336C17.9814 23.1906 18.205 22.9335 18.3392 22.5644C18.4734 22.1954 18.5405 21.6755 18.5405 21.0045C18.5405 20.2442 18.4901 19.6627 18.3895 19.2601C18.3 18.8464 18.1044 18.5612 17.8024 18.4047C17.5005 18.2481 17.0309 18.1699 16.3935 18.1699H15.5045V23.5541Z" fill="#38B0B0"/>
<path d="M20.7315 9.36239C20.7315 7.25886 22.2334 5.15534 25.2393 5.15534C26.8332 5.15534 28.3618 4.52217 29.4889 3.39513M12.3174 9.36239V8.31063C12.3174 6.63696 12.9822 5.03184 14.1657 3.84838C15.3492 2.66492 16.9543 2.00006 18.6279 2.00006" stroke="#333333" stroke-width="2.08" stroke-linecap="round" stroke-linejoin="round"/>
</svg>
