<svg width="60" height="60" viewBox="0 0 60 60" fill="none" xmlns="http://www.w3.org/2000/svg">
    <rect x="0.5" y="0.5" width="59" height="59" rx="15.5" stroke="#9CA4B5"/>
    <path d="M35.5579 20.7497C35.3231 23.9162 32.9227 26.4993 30.2874 26.4993C27.6521 26.4993 25.2475 23.9167 25.0169 20.7497C24.7773 17.4556 27.1131 15 30.2874 15C33.4617 15 35.7975 17.5155 35.5579 20.7497Z" stroke="#9CA4B5" stroke-width="1.91655" stroke-linecap="round" stroke-linejoin="round"/>
    <path d="M29.5 30.3324C24.2893 30.3324 19.0009 33.2072 18.0222 38.6335C17.9024 39.2875 18.2744 39.9151 18.9595 39.9151H40.041C40.7262 39.9151 41.0963 39.2875 40.9783 38.6335C39.9991 33.2072 34.7106 30.3324 29.5 30.3324Z" stroke="#9CA4B5" stroke-width="1.91655" stroke-miterlimit="10"/>
</svg>
