<svg width="44" height="44" viewBox="0 0 44 44" fill="none" xmlns="http://www.w3.org/2000/svg">
<rect x="0.5" y="0.5" width="43" height="43" rx="9.5" fill="#F6F6F6" stroke="#E5E5E5"/>
<g clip-path="url(#clip0_16905_5338)">
<path d="M10.75 10.75H14.5V14.5H10.75V10.75Z" fill="black"/>
<path d="M18.25 7V18.25H7V7H18.25ZM16.375 8.875H8.875V16.375H16.375V8.875ZM14.5 29.5H10.75V33.25H14.5V29.5Z" fill="black"/>
<path d="M18.25 25.75V37H7V25.75H18.25ZM8.875 27.625V35.125H16.375V27.625H8.875ZM29.5 10.75H33.25V14.5H29.5V10.75Z" fill="black"/>
<path d="M25.75 7V18.25H37V7H25.75ZM35.125 8.875V16.375H27.625V8.875H35.125ZM22 8.875V7H23.875V10.75H22V14.5H20.125V8.875H22ZM22 18.25V14.5H23.875V18.25H22ZM18.25 22V20.125H20.125V18.25H22V22H23.875V20.125H33.25V22H25.75V23.875H20.125V22H18.25ZM18.25 22V23.875H10.75V22H8.875V23.875H7V20.125H12.625V22H18.25ZM37 23.875H35.125V20.125H37V23.875ZM35.125 23.875H33.25V27.625H37V25.75H35.125V23.875ZM27.625 23.875H31.375V25.75H29.5V27.625H27.625V23.875ZM31.375 29.5V27.625H29.5V29.5H27.625V31.375H23.875V33.25H29.5V29.5H31.375ZM31.375 29.5H37V31.375H33.25V33.25H31.375V29.5ZM23.875 27.625V29.5H25.75V25.75H20.125V27.625H23.875Z" fill="black"/>
<path d="M20.125 29.5H22V35.125H29.5V37H20.125V29.5ZM37 33.25V37H31.375V35.125H35.125V33.25H37Z" fill="black"/>
</g>
<defs>
<clipPath id="clip0_16905_5338">
<rect width="30" height="30" fill="white" transform="translate(7 7)"/>
</clipPath>
</defs>
</svg>
