<svg width="25" height="28" viewBox="0 0 25 28" fill="none" xmlns="http://www.w3.org/2000/svg">
<path d="M25 8.90909C24.0291 8.9351 23.0695 8.69321 22.2229 8.20909C21.5463 7.81404 20.7759 7.61591 19.9961 7.63636V6.36364C20.967 6.33763 21.9266 6.57952 22.7733 7.06364C23.4499 7.45868 24.2202 7.65682 25 7.63636M25 5.09091C24.2202 5.11136 23.4499 4.91323 22.7733 4.51818C21.9266 4.03406 20.967 3.79217 19.9961 3.81818V5.09091C20.7759 5.07046 21.5463 5.26859 22.2229 5.66364C23.0695 6.14775 24.0291 6.38964 25 6.36364M25 10.1818C24.2202 10.2023 23.4499 10.0041 22.7733 9.60909C21.9266 9.12497 20.967 8.88308 19.9961 8.90909V10.1818C20.7759 10.1614 21.5463 10.3595 22.2229 10.7545C23.0695 11.2387 24.0291 11.4806 25 11.4545M9.98839 13.6564C12.9426 13.076 15.8654 12.3411 18.7452 11.4545V2.54545C18.7452 2.54545 10.6139 0 6.86097 0C5.1903 0.0047844 3.57841 0.62786 2.32612 1.75295C1.07382 2.87804 0.266672 4.42828 0.0553036 6.11436C-0.156065 7.80044 0.242786 9.50716 1.17742 10.916C2.11206 12.3249 3.51863 13.3396 5.13464 13.7709L6.23549 21.6364H7.48645C7.53648 22.243 7.72835 22.8287 8.04607 23.3445C8.36378 23.8604 8.79812 24.2915 9.31287 24.6018C9.89323 24.9529 10.3752 25.4498 10.7126 26.0448C11.0499 26.6399 11.2313 27.3131 11.2394 28H12.4903C12.4846 27.1232 12.263 26.2619 11.8455 25.4948C11.4281 24.7277 10.8283 24.0794 10.101 23.6091C9.2253 22.9091 8.73742 22.4382 8.73742 21.6364H9.98839M6.86097 10.1818C6.24243 10.1818 5.63777 9.99521 5.12347 9.64559C4.60917 9.29596 4.20832 8.79903 3.97161 8.21763C3.73491 7.63623 3.67297 6.99647 3.79364 6.37926C3.91432 5.76205 4.21217 5.1951 4.64955 4.75011C5.08693 4.30513 5.64418 4.00209 6.25084 3.87932C6.8575 3.75655 7.48632 3.81956 8.05778 4.06038C8.62924 4.30121 9.11768 4.70903 9.46132 5.23228C9.80497 5.75552 9.98839 6.3707 9.98839 7C9.98839 7.84387 9.65889 8.65318 9.07239 9.24988C8.48589 9.84659 7.69041 10.1818 6.86097 10.1818Z" fill="#9CA4B5"/>
</svg>
