<svg width="53" height="53" viewBox="0 0 53 53" fill="none" xmlns="http://www.w3.org/2000/svg">
<rect width="53" height="53" rx="26.5" fill="#38B0B0"/>
<path d="M16.1352 19.4086C16.3587 19.0973 16.658 18.8619 17.0332 18.7022C17.4163 18.5426 17.8553 18.4628 18.3502 18.4628V20.1869C18.1427 20.1709 18.003 20.1629 17.9312 20.1629C17.3964 20.1629 16.9773 20.3146 16.674 20.6179C16.3707 20.9132 16.219 21.3602 16.219 21.9589V25H14.3512V18.5585H16.1352V19.4086ZM22.0239 18.4628C23.0216 18.4628 23.7879 18.7022 24.3227 19.1811C24.8575 19.6521 25.1249 20.3665 25.1249 21.3243V25H23.3768V24.1978C23.0256 24.7965 22.3711 25.0958 21.4132 25.0958C20.9183 25.0958 20.4873 25.012 20.1201 24.8444C19.761 24.6767 19.4856 24.4453 19.294 24.1499C19.1024 23.8546 19.0067 23.5193 19.0067 23.1442C19.0067 22.5455 19.2302 22.0746 19.6771 21.7314C20.1321 21.3882 20.8305 21.2165 21.7724 21.2165H23.2571C23.2571 20.8095 23.1333 20.4982 22.8859 20.2826C22.6385 20.0592 22.2673 19.9474 21.7724 19.9474C21.4292 19.9474 21.09 20.0033 20.7547 20.115C20.4275 20.2188 20.1481 20.3625 19.9166 20.5461L19.2461 19.241C19.5973 18.9936 20.0164 18.802 20.5033 18.6663C20.9982 18.5306 21.505 18.4628 22.0239 18.4628ZM21.8802 23.8386C22.1995 23.8386 22.4828 23.7668 22.7303 23.6231C22.9777 23.4715 23.1533 23.2519 23.2571 22.9646V22.3061H21.976C21.2097 22.3061 20.8266 22.5575 20.8266 23.0604C20.8266 23.2998 20.9183 23.4914 21.1019 23.6351C21.2935 23.7708 21.5529 23.8386 21.8802 23.8386ZM30.9699 24.6887C30.7863 24.8244 30.5588 24.9282 30.2874 25C30.024 25.0639 29.7447 25.0958 29.4493 25.0958C28.6831 25.0958 28.0884 24.9002 27.6654 24.5091C27.2503 24.118 27.0428 23.5433 27.0428 22.785V20.139H26.049V18.7022H27.0428V17.1338H28.9106V18.7022H30.5149V20.139H28.9106V22.7611C28.9106 23.0324 28.9784 23.244 29.1141 23.3956C29.2578 23.5393 29.4573 23.6111 29.7127 23.6111C30.0081 23.6111 30.2595 23.5313 30.467 23.3717L30.9699 24.6887ZM38.1294 21.8032C38.1294 21.8272 38.1174 21.9948 38.0934 22.3061H33.2204C33.3083 22.7052 33.5158 23.0205 33.843 23.2519C34.1703 23.4834 34.5774 23.5992 35.0643 23.5992C35.3995 23.5992 35.6949 23.5513 35.9503 23.4555C36.2137 23.3517 36.4571 23.1921 36.6806 22.9766L37.6744 24.0541C37.0678 24.7486 36.1818 25.0958 35.0164 25.0958C34.29 25.0958 33.6475 24.9561 33.0887 24.6767C32.53 24.3894 32.099 23.9943 31.7957 23.4914C31.4924 22.9885 31.3407 22.4178 31.3407 21.7793C31.3407 21.1487 31.4884 20.582 31.7837 20.0791C32.087 19.5683 32.4981 19.1732 33.0169 18.8938C33.5437 18.6064 34.1304 18.4628 34.7769 18.4628C35.4075 18.4628 35.9782 18.5985 36.4891 18.8698C36.9999 19.1412 37.399 19.5323 37.6864 20.0432C37.9817 20.5461 38.1294 21.1327 38.1294 21.8032ZM34.7889 19.8756C34.3659 19.8756 34.0107 19.9953 33.7233 20.2348C33.436 20.4742 33.2604 20.8015 33.1965 21.2165H36.3693C36.3055 20.8095 36.1299 20.4862 35.8425 20.2467C35.5552 19.9993 35.204 19.8756 34.7889 19.8756ZM24.0888 29.7152L21.4484 37H19.4173L17.7789 32.4775L16.0863 37H14.0552L11.4284 29.7152H13.4188L15.1385 34.6439L16.9258 29.7152H18.7132L20.4464 34.6439L22.2202 29.7152H24.0888ZM32.0083 33.3847C32.0083 33.4118 31.9948 33.6013 31.9677 33.9534H26.4567C26.556 34.4047 26.7907 34.7613 27.1608 35.0231C27.5309 35.2849 27.9913 35.4158 28.5419 35.4158C28.9211 35.4158 29.2551 35.3616 29.5439 35.2533C29.8418 35.1359 30.1171 34.9554 30.3699 34.7116L31.4938 35.9303C30.8077 36.7156 29.8057 37.1083 28.4878 37.1083C27.6663 37.1083 26.9396 36.9504 26.3077 36.6344C25.6758 36.3094 25.1884 35.8626 24.8454 35.2939C24.5023 34.7252 24.3308 34.0798 24.3308 33.3576C24.3308 32.6445 24.4978 32.0035 24.8318 31.4348C25.1748 30.8571 25.6397 30.4103 26.2265 30.0943C26.8223 29.7694 27.4858 29.6069 28.2169 29.6069C28.9301 29.6069 29.5755 29.7603 30.1532 30.0672C30.731 30.3742 31.1823 30.8165 31.5073 31.3942C31.8413 31.9629 32.0083 32.6264 32.0083 33.3847ZM28.2305 31.2046C27.7521 31.2046 27.3504 31.3401 27.0254 31.6109C26.7004 31.8817 26.5018 32.2518 26.4296 32.7212H30.0178C29.9456 32.2608 29.747 31.8952 29.4221 31.6244C29.0971 31.3446 28.6999 31.2046 28.2305 31.2046ZM33.4146 26.9529H35.5269V37H33.4146V26.9529ZM37.4873 26.9529H39.5997V37H37.4873V26.9529Z" fill="white"/>
</svg>
