<svg width="44" height="44" viewBox="0 0 44 44" fill="none" xmlns="http://www.w3.org/2000/svg">
<rect x="0.5" y="0.5" width="43" height="43" rx="9.5" fill="#F6F6F6" stroke="#E5E5E5"/>
<path d="M21.5 13.2727V17.6364L27.25 11.8182L21.5 6V10.3636C15.1462 10.3636 10 15.5709 10 22C10 24.2836 10.6612 26.4073 11.7825 28.1964L13.8812 26.0727C13.2344 24.8655 12.875 23.4691 12.875 22C12.875 17.1855 16.7419 13.2727 21.5 13.2727ZM31.2175 15.8036L29.1187 17.9273C29.7512 19.1491 30.125 20.5309 30.125 22C30.125 26.8145 26.2581 30.7273 21.5 30.7273V26.3636L15.75 32.1818L21.5 38V33.6364C27.8538 33.6364 33 28.4291 33 22C33 19.7164 32.3388 17.5927 31.2175 15.8036Z" fill="black"/>
</svg>
