<svg width="128" height="128" viewBox="0 0 128 128" fill="none" xmlns="http://www.w3.org/2000/svg">
<circle cx="64" cy="64" r="64" fill="white"/>
<path d="M89.3583 55.0192C87.1332 55.0192 85.3231 56.8122 85.3231 59.0164V65.8689C85.3231 76.593 76.5495 85.2842 65.7236 85.2842C54.8978 85.2842 46.1241 76.593 46.1241 65.8689V24.7541C46.1241 22.5499 44.314 20.7568 42.0889 20.7568C39.8638 20.7568 38.0537 22.5499 38.0537 24.7541V65.8689C38.0537 81.0014 50.4475 93.2788 65.7236 93.2788C73.379 93.2788 80.2964 90.2066 85.3116 85.2385C85.1387 92.7534 81.1381 98.1326 74.7509 100.805C68.0294 103.626 58.2643 103.58 47.1733 98.7607C45.1326 97.8699 42.7576 98.795 41.8583 100.816C40.9591 102.838 41.8929 105.191 43.9336 106.081C56.4773 111.541 68.6174 112.066 77.8984 108.171C87.3638 104.197 93.4051 95.7799 93.4051 84.7132V59.0164C93.4051 56.8122 91.595 55.0192 89.3699 55.0192H89.3583Z" fill="#38B0B0" stroke="#38B0B0" stroke-width="3"/>
</svg>
