<svg width="24" height="24" viewBox="0 0 24 24" fill="none" xmlns="http://www.w3.org/2000/svg">
<path d="M12 0.574219C8.81812 0.574219 5.76375 1.79711 3.51562 3.97175C1.26518 6.14725 0.000623381 9.09765 0 12.1742C0 15.2495 1.26562 18.202 3.51562 20.3767C5.76375 22.5513 8.81812 23.7742 12 23.7742C15.1819 23.7742 18.2362 22.5513 20.4844 20.3767C22.7344 18.202 24 15.2495 24 12.1742C24 9.09895 22.7344 6.14639 20.4844 3.97175C18.2362 1.79711 15.1819 0.574219 12 0.574219Z" fill="url(#paint0_linear_16306_3942)"/>
<path d="M5.68059 12.2516C9.11721 10.7841 11.4083 9.81646 12.5538 9.34901C15.8284 8.01417 16.508 7.78234 16.9518 7.77448C17.0494 7.77295 17.2668 7.7966 17.4086 7.909C17.5264 8.00379 17.5596 8.13198 17.5762 8.22199C17.5909 8.3119 17.6112 8.51683 17.5946 8.6768C17.4178 10.504 16.6498 14.9381 16.2593 16.9846C16.0954 17.8506 15.7694 18.1409 15.4545 18.1693C14.7694 18.231 14.25 17.7258 13.587 17.2999C12.5501 16.6331 11.9645 16.2182 10.9571 15.5677C9.79311 14.8158 10.5482 14.4025 11.2112 13.7273C11.3843 13.5505 14.4011 10.8611 14.4582 10.6172C14.4655 10.5867 14.4729 10.473 14.4029 10.413C14.3348 10.3529 14.2335 10.3735 14.1598 10.3897C14.0548 10.4128 12.3991 11.4868 9.18719 13.6113C8.71756 13.928 8.29212 14.0824 7.90905 14.0743C7.48914 14.0654 6.67879 13.841 6.07655 13.6493C5.33987 13.414 4.75237 13.2896 4.80394 12.89C4.82972 12.682 5.12255 12.4692 5.68059 12.2516Z" fill="white"/>
<defs>
<linearGradient id="paint0_linear_16306_3942" x1="1200" y1="0.574219" x2="1200" y2="2320.57" gradientUnits="userSpaceOnUse">
<stop stop-color="#2AABEE"/>
<stop offset="1" stop-color="#229ED9"/>
</linearGradient>
</defs>
</svg>
