<svg width="24" height="24" viewBox="0 0 24 24" fill="none" xmlns="http://www.w3.org/2000/svg">
<path d="M0.29623 12.0697C0.295665 14.0955 0.829136 16.0736 1.84352 17.8171L0.199219 23.7742L6.34317 22.1757C8.04252 23.0937 9.94649 23.5746 11.8813 23.5748H11.8864C18.2736 23.5748 23.473 18.4176 23.4757 12.0788C23.477 9.00713 22.2725 6.11878 20.0842 3.94574C17.8962 1.77289 14.9864 0.575621 11.8859 0.574219C5.49795 0.574219 0.298962 5.73112 0.296325 12.0697" fill="url(#paint0_linear_16306_3945)"/>
<path d="M8.88873 7.08762C8.664 6.59202 8.4275 6.58202 8.21379 6.57333C8.03879 6.56585 7.83874 6.56642 7.63888 6.56642C7.43883 6.56642 7.11379 6.64109 6.83905 6.93874C6.56403 7.23668 5.78906 7.95667 5.78906 9.42103C5.78906 10.8854 6.86401 12.3007 7.01386 12.4995C7.1639 12.6979 9.08906 15.7991 12.1381 16.9922C14.672 17.9837 15.1877 17.7865 15.7377 17.7368C16.2877 17.6872 17.5125 17.017 17.7624 16.3219C18.0125 15.627 18.0125 15.0313 17.9375 14.9068C17.8625 14.7828 17.6625 14.7083 17.3625 14.5595C17.0625 14.4107 15.5876 13.6906 15.3127 13.5912C15.0377 13.492 14.8377 13.4424 14.6377 13.7405C14.4376 14.038 13.8632 14.7083 13.6881 14.9068C13.5132 15.1058 13.3381 15.1305 13.0382 14.9817C12.738 14.8323 11.772 14.5184 10.6258 13.5045C9.73405 12.7155 9.13201 11.7413 8.95701 11.4432C8.78202 11.1457 8.93827 10.9844 9.08869 10.8361C9.22347 10.7027 9.38876 10.4885 9.5389 10.3148C9.68846 10.1409 9.73838 10.0169 9.83841 9.81841C9.93853 9.61972 9.88842 9.44589 9.81354 9.29702C9.73838 9.14814 9.15546 7.67611 8.88873 7.08762Z" fill="white"/>
<defs>
<linearGradient id="paint0_linear_16306_3945" x1="1164.02" y1="2320.57" x2="1164.02" y2="0.574219" gradientUnits="userSpaceOnUse">
<stop stop-color="#1FAF38"/>
<stop offset="1" stop-color="#60D669"/>
</linearGradient>
</defs>
</svg>
