<svg width="113" height="28" viewBox="0 0 113 28" fill="none" xmlns="http://www.w3.org/2000/svg">
<g clip-path="url(#clip0_16306_3957)">
<path d="M27.9727 5.62984C23.2929 5.62984 19.4961 9.42666 19.4961 14.1065C19.4961 18.7863 23.2929 22.5831 27.9727 22.5831C30.3179 22.5831 32.4406 21.6295 33.977 20.0895V22.5831C33.977 23.2647 34.5315 23.8192 35.2131 23.8192C35.8948 23.8192 36.4493 23.2647 36.4493 22.5831V14.1065C36.4493 9.42666 32.6525 5.62984 27.9727 5.62984ZM27.9727 20.1107C24.6562 20.1107 21.9684 17.4229 21.9684 14.1065C21.9684 10.79 24.6562 8.10219 27.9727 8.10219C31.2892 8.10219 33.977 10.79 33.977 14.1065C33.977 17.4229 31.2892 20.1107 27.9727 20.1107Z" fill="#38B0B0"/>
<path d="M47.045 5.62984C42.3616 5.62984 38.5684 9.42666 38.5684 14.1065C38.5684 18.7863 42.3616 22.5831 47.045 22.5831C49.3902 22.5831 51.5093 21.633 53.0457 20.0966C52.9927 22.4206 51.7672 24.0841 49.8105 24.9106C47.7514 25.783 44.7598 25.7689 41.3621 24.2784C40.737 24.0029 40.0059 24.289 39.7339 24.9141C39.4619 25.5393 39.7445 26.2669 40.3696 26.5424C44.2124 28.2306 47.9315 28.3931 50.7747 27.1887C53.6744 25.9596 55.5251 23.3566 55.5251 19.9341V14.1065C55.5251 9.42313 51.7318 5.62984 47.0485 5.62984H47.045ZM47.045 20.1107C43.7285 20.1107 41.0407 17.4229 41.0407 14.1065C41.0407 10.79 43.7285 8.10219 47.045 8.10219C50.3614 8.10219 53.0492 10.79 53.0492 14.1065C53.0492 17.4229 50.3614 20.1107 47.045 20.1107Z" fill="#38B0B0"/>
<path d="M112.735 13.9299C112.639 9.3313 108.885 5.62984 104.262 5.62984C99.6385 5.62984 95.7852 9.42666 95.7852 14.1065C95.7852 18.7863 99.5784 22.5831 104.262 22.5831C106.607 22.5831 108.73 21.6295 110.266 20.0895V22.5831C110.266 23.2647 110.821 23.8192 111.502 23.8192C112.184 23.8192 112.738 23.2647 112.738 22.5831V13.9299H112.735ZM104.262 20.1107C100.945 20.1107 98.2575 17.4229 98.2575 14.1065C98.2575 10.79 100.945 8.10219 104.262 8.10219C107.578 8.10219 110.266 10.79 110.266 14.1065C110.266 17.4229 107.578 20.1107 104.262 20.1107Z" fill="#38B0B0"/>
<path d="M92.43 0.155365C91.7483 0.155365 91.1938 0.709877 91.1938 1.39154V8.12338C89.6574 6.58346 87.5347 5.62985 85.1895 5.62985C80.5062 5.62985 76.7129 9.42666 76.7129 14.1065C76.7129 18.7863 80.5062 22.5831 85.1895 22.5831C87.5347 22.5831 89.6574 21.6295 91.1938 20.0895V22.5831C91.1938 23.2647 91.7483 23.8192 92.43 23.8192C93.1116 23.8192 93.6661 23.2647 93.6661 22.5831V1.39154C93.6661 0.709877 93.1116 0.155365 92.43 0.155365ZM85.1895 20.1107C81.873 20.1107 79.1852 17.4229 79.1852 14.1065C79.1852 10.79 81.873 8.10219 85.1895 8.10219C88.506 8.10219 91.1938 10.79 91.1938 14.1065C91.1938 17.4229 88.506 20.1107 85.1895 20.1107Z" fill="#38B0B0"/>
<path d="M16.1409 10.7511C15.4592 10.7511 14.9047 11.3056 14.9047 11.9873V14.1065C14.9047 17.4229 12.2169 20.1107 8.90044 20.1107C5.58397 20.1107 2.89617 17.4229 2.89617 14.1065V1.39154C2.89617 0.709877 2.34166 0.155365 1.66 0.155365C0.97834 0.155365 0.423828 0.709877 0.423828 1.39154V14.1065C0.423828 18.7863 4.22064 22.5831 8.90044 22.5831C11.2456 22.5831 13.3648 21.633 14.9012 20.0966C14.8482 22.4206 13.6226 24.0841 11.6659 24.9106C9.60683 25.783 6.61529 25.7689 3.21758 24.2784C2.59243 24.0029 1.86485 24.289 1.58936 24.9141C1.31387 25.5393 1.59996 26.2669 2.22511 26.5424C6.06784 28.2306 9.78696 28.3931 12.6302 27.1887C15.5299 25.9596 17.3806 23.3566 17.3806 19.9341V11.9873C17.3806 11.3056 16.8261 10.7511 16.1444 10.7511H16.1409Z" fill="#38B0B0"/>
<g clip-path="url(#clip1_16306_3957)">
<path d="M66.1169 5.45325C61.4998 5.45325 57.7138 8.99619 57.324 13.514C57.3094 13.6206 57.2981 13.7275 57.2908 13.8341H57.2981C57.2908 13.9812 57.2871 14.1319 57.2871 14.2831C57.2871 19.1578 61.2385 23.1129 66.1169 23.1129C70.9954 23.1129 74.9467 19.1578 74.9467 14.2831C74.9467 9.40827 70.9954 5.45325 66.1169 5.45325ZM66.1169 20.5375C62.6623 20.5375 59.8625 17.7377 59.8625 14.2831C59.8625 14.125 59.8734 13.9703 59.8847 13.8159C60.0136 12.9439 60.6793 12.0464 61.6984 11.5975C62.7138 11.1522 64.0788 11.1635 65.4731 12.326C66.0213 12.7822 66.8308 12.7085 67.2867 12.1603C67.7429 11.6157 67.6692 10.8025 67.121 10.3467C65.8479 9.28709 64.4832 8.80129 63.1806 8.75713C64.0562 8.29359 65.0533 8.02496 66.1129 8.02496C69.5675 8.02496 72.3673 10.8248 72.3673 14.2794C72.3673 17.734 69.5675 20.5339 66.1129 20.5339L66.1166 20.5375H66.1169Z" fill="#38B0B0"/>
</g>
</g>
<defs>
<clipPath id="clip0_16306_3957">
<rect width="112.315" height="27.8139" fill="white" transform="translate(0.423828 0.155365)"/>
</clipPath>
<clipPath id="clip1_16306_3957">
<rect width="17.6596" height="17.6596" fill="white" transform="translate(57.2871 5.45325)"/>
</clipPath>
</defs>
</svg>
