<svg width="23" height="19" viewBox="0 0 23 19" fill="none" xmlns="http://www.w3.org/2000/svg">
<path d="M19.7065 18.4241C19.6107 18.4243 19.5158 18.4055 19.4273 18.3688C19.3388 18.3321 19.2584 18.2782 19.1908 18.2103L3.14326 2.16276C3.01224 2.02485 2.94028 1.84121 2.94271 1.651C2.94515 1.4608 3.02179 1.27906 3.1563 1.14455C3.29081 1.01005 3.47254 0.933403 3.66275 0.930968C3.85296 0.928533 4.0366 1.0005 4.1745 1.13152L20.2221 17.1791C20.324 17.2811 20.3934 17.411 20.4216 17.5525C20.4497 17.6939 20.4352 17.8406 20.3801 17.9738C20.3249 18.1071 20.2314 18.2209 20.1115 18.3011C19.9916 18.3813 19.8507 18.4241 19.7065 18.4241ZM11.6672 15.5064C9.77565 15.5064 7.95161 14.9466 6.24564 13.8424C4.6924 12.8394 3.29417 11.4029 2.20184 9.69372V9.69007C3.1109 8.38757 4.10658 7.28613 5.17611 6.39804C5.18578 6.38995 5.19368 6.37994 5.19929 6.36865C5.2049 6.35735 5.2081 6.34502 5.2087 6.33242C5.2093 6.31983 5.20728 6.30724 5.20277 6.29547C5.19826 6.28369 5.19135 6.27298 5.18249 6.26401L4.27435 5.35723C4.25821 5.34096 4.23653 5.33136 4.21364 5.33034C4.19075 5.32933 4.16831 5.33697 4.1508 5.35176C3.0147 6.30914 1.96021 7.48353 1.00146 8.85851C0.83651 9.09526 0.745666 9.37571 0.74047 9.66421C0.735275 9.95271 0.815964 10.2362 0.972283 10.4788C2.17631 12.363 3.7259 13.95 5.45284 15.0674C7.39724 16.327 9.48981 16.9653 11.6672 16.9653C12.8425 16.9616 14.0094 16.768 15.1229 16.3918C15.1376 16.3868 15.1507 16.3781 15.1611 16.3666C15.1716 16.3551 15.1789 16.3412 15.1824 16.3261C15.1859 16.311 15.1855 16.2952 15.1812 16.2803C15.177 16.2654 15.169 16.2518 15.158 16.2409L14.1741 15.257C14.1515 15.2349 14.1235 15.2191 14.0929 15.2111C14.0623 15.2031 14.0301 15.2032 13.9995 15.2114C13.2376 15.4076 12.4539 15.5067 11.6672 15.5064ZM22.389 8.87766C21.1827 7.01213 19.6176 5.42743 17.8633 4.29453C15.9225 3.0399 13.7798 2.37657 11.6672 2.37657C10.5043 2.37864 9.35016 2.57637 8.25296 2.96149C8.23834 2.96658 8.22526 2.9753 8.21494 2.98684C8.20463 2.99838 8.19742 3.01236 8.194 3.02745C8.19058 3.04255 8.19106 3.05827 8.19539 3.07313C8.19972 3.08799 8.20777 3.1015 8.21877 3.11239L9.20122 4.09485C9.2241 4.11733 9.25249 4.13338 9.28355 4.14139C9.3146 4.14939 9.34722 4.14906 9.37811 4.14044C10.1244 3.93856 10.8941 3.83601 11.6672 3.83544C13.5222 3.83544 15.3408 4.40212 17.0718 5.52226C18.6542 6.54347 20.0689 7.97863 21.164 9.67092L21.1652 9.67457L21.164 9.67822C20.3691 10.9296 19.3827 12.0485 18.2407 12.994C18.231 13.002 18.223 13.012 18.2173 13.0233C18.2116 13.0347 18.2083 13.047 18.2077 13.0597C18.207 13.0723 18.209 13.085 18.2135 13.0968C18.2181 13.1087 18.225 13.1194 18.2339 13.1284L19.1411 14.0352C19.1572 14.0514 19.1788 14.061 19.2015 14.0621C19.2243 14.0632 19.2467 14.0557 19.2642 14.0412C20.4833 13.0147 21.5386 11.8082 22.3935 10.4633C22.5446 10.2263 22.6245 9.95088 22.6237 9.6698C22.6229 9.38872 22.5414 9.11379 22.389 8.87766Z" fill="#9CA4B5"/>
<path d="M11.6827 5.29431C11.3549 5.29414 11.0281 5.33084 10.7085 5.40373C10.6923 5.40708 10.6774 5.41475 10.6652 5.42591C10.6531 5.43708 10.6442 5.45132 10.6396 5.46714C10.6349 5.48295 10.6346 5.49973 10.6387 5.5157C10.6428 5.53167 10.6511 5.54622 10.6629 5.55782L15.7958 10.6894C15.8074 10.7011 15.822 10.7095 15.8379 10.7136C15.8539 10.7177 15.8707 10.7174 15.8865 10.7127C15.9023 10.708 15.9166 10.6991 15.9277 10.687C15.9389 10.6749 15.9466 10.6599 15.9499 10.6438C16.096 10.0028 16.0959 9.33717 15.9495 8.69626C15.8031 8.05535 15.5142 7.45565 15.1042 6.94171C14.6943 6.42777 14.1738 6.01279 13.5814 5.72759C12.9891 5.44239 12.3401 5.2943 11.6827 5.29431ZM7.56961 8.65245C7.55801 8.64073 7.54345 8.63237 7.52748 8.62827C7.51151 8.62416 7.49473 8.62446 7.47892 8.62914C7.46311 8.63382 7.44886 8.6427 7.4377 8.65483C7.42653 8.66696 7.41887 8.68189 7.41551 8.69804C7.25018 9.42034 7.27094 10.1728 7.47585 10.8849C7.68076 11.597 8.0631 12.2454 8.58706 12.7693C9.11101 13.2933 9.75941 13.6756 10.4715 13.8805C11.1836 14.0854 11.936 14.1062 12.6583 13.9409C12.6745 13.9375 12.6894 13.9298 12.7015 13.9187C12.7137 13.9075 12.7225 13.8933 12.7272 13.8774C12.7319 13.8616 12.7322 13.8449 12.7281 13.8289C12.724 13.8129 12.7156 13.7984 12.7039 13.7868L7.56961 8.65245Z" fill="#9CA4B5"/>
</svg>
