<svg width="25" height="19" viewBox="0 0 25 19" fill="none" xmlns="http://www.w3.org/2000/svg">
<path d="M22.3364 1.77507H17.8987V0H6.80445V1.77507H2.36677C1.73906 1.77507 1.13706 2.02443 0.69321 2.46829C0.249355 2.91214 0 3.51414 0 4.14184V16.4194C0 17.0471 0.249355 17.6491 0.69321 18.093C1.13706 18.5369 1.73906 18.7862 2.36677 18.7862H22.3364C22.9641 18.7862 23.5661 18.5369 24.0099 18.093C24.4538 17.6491 24.7031 17.0471 24.7031 16.4194V4.14184C24.7031 3.51414 24.4538 2.91214 24.0099 2.46829C23.5661 2.02443 22.9641 1.77507 22.3364 1.77507ZM12.351 17.4549C8.3961 17.4549 5.17967 14.2361 5.17967 10.2812C5.17967 6.32637 8.3961 3.10756 12.351 3.10756C16.3058 3.10756 19.5246 6.32637 19.5246 10.2812C19.5246 14.2361 16.3058 17.4525 12.351 17.4525V17.4549ZM12.351 5.47315C11.7195 5.47323 11.0942 5.59768 10.5108 5.83941C9.92743 6.08114 9.39737 6.43541 8.9509 6.88199C8.50442 7.32858 8.15028 7.85872 7.9087 8.44217C7.66711 9.02562 7.54281 9.65093 7.54288 10.2824C7.54296 10.9139 7.66742 11.5392 7.90915 12.1226C8.15088 12.706 8.50515 13.236 8.95173 13.6825C9.39831 14.129 9.92846 14.4831 10.5119 14.7247C11.0954 14.9663 11.7207 15.0906 12.3522 15.0905C13.6277 15.0903 14.8508 14.5835 15.7526 13.6815C16.6544 12.7795 17.161 11.5561 17.1608 10.2806C17.1607 9.00514 16.6538 7.78195 15.7518 6.88015C14.8498 5.97835 13.6265 5.47181 12.351 5.47196V5.47315Z" fill="black" fill-opacity="0.4"/>
</svg>
