<svg width="42" height="80" viewBox="0 0 42 80" fill="none" xmlns="http://www.w3.org/2000/svg">
<path d="M19.0979 43.8541C19.6966 42.0115 22.3034 42.0115 22.9021 43.8541L25.2658 51.1287C25.5335 51.9527 26.3014 52.5106 27.1679 52.5106H34.8168C36.7543 52.5106 37.5598 54.9899 35.9924 56.1287L29.8043 60.6246C29.1033 61.1339 28.81 62.0366 29.0777 62.8607L31.4414 70.1353C32.0401 71.9779 29.9311 73.5101 28.3637 72.3713L22.1756 67.8754C21.4746 67.3661 20.5254 67.3661 19.8244 67.8754L13.6363 72.3713C12.0689 73.5101 9.95992 71.9779 10.5586 70.1353L12.9223 62.8607C13.19 62.0366 12.8967 61.1339 12.1957 60.6246L6.00761 56.1287C4.44018 54.9899 5.24573 52.5106 7.18318 52.5106H14.8321C15.6986 52.5106 16.4665 51.9527 16.7342 51.1287L19.0979 43.8541Z" fill="#FFA800" stroke="#FFA800" stroke-width="2" stroke-linejoin="round"/>
<path d="M19.0979 5.8541C19.6966 4.01148 22.3034 4.01148 22.9021 5.8541L25.2658 13.1287C25.5335 13.9527 26.3014 14.5106 27.1679 14.5106H34.8168C36.7543 14.5106 37.5598 16.9899 35.9924 18.1287L29.8043 22.6246C29.1033 23.1339 28.81 24.0366 29.0777 24.8607L31.4414 32.1353C32.0401 33.9779 29.9311 35.5101 28.3637 34.3713L22.1756 29.8754C21.4746 29.3661 20.5254 29.3661 19.8244 29.8754L13.6363 34.3713C12.0689 35.5101 9.95992 33.9779 10.5586 32.1353L12.9223 24.8607C13.19 24.0366 12.8967 23.1339 12.1957 22.6246L6.00761 18.1287C4.44018 16.9899 5.24573 14.5106 7.18318 14.5106H14.8321C15.6986 14.5106 16.4665 13.9527 16.7342 13.1287L19.0979 5.8541Z" stroke="#E5E5E5" stroke-width="2" stroke-linejoin="round"/>
</svg>
