<svg width="23" height="15" viewBox="0 0 23 15" fill="none" xmlns="http://www.w3.org/2000/svg">
<path d="M11.1966 1C7.64337 1 3.99848 3.05655 1.12906 7.16965C1.04716 7.28835 1.00228 7.42866 1.00008 7.57285C0.997893 7.71705 1.03849 7.85865 1.11675 7.97978C3.32147 11.4309 6.91759 14.1298 11.1966 14.1298C15.4292 14.1298 19.0992 11.4227 21.308 7.96383C21.3844 7.84507 21.425 7.70683 21.425 7.5656C21.425 7.42437 21.3844 7.28613 21.308 7.16737C19.0941 3.74815 15.3973 1 11.1966 1Z" stroke="#9CA4B5" stroke-width="1.45887" stroke-linecap="round" stroke-linejoin="round"/>
<path d="M11.2121 11.2121C13.2264 11.2121 14.8593 9.57918 14.8593 7.5649C14.8593 5.55062 13.2264 3.91772 11.2121 3.91772C9.19784 3.91772 7.56494 5.55062 7.56494 7.5649C7.56494 9.57918 9.19784 11.2121 11.2121 11.2121Z" stroke="#9CA4B5" stroke-width="1.45887" stroke-miterlimit="10"/>
</svg>
