<svg width="19" height="15" viewBox="0 0 19 15" fill="none" xmlns="http://www.w3.org/2000/svg">
<path fill-rule="evenodd" clip-rule="evenodd" d="M9.99155 1.61761C10.228 1.45909 10.3836 1.1894 10.3836 0.883359C10.3836 0.395493 9.98813 0 9.50026 0C9.01239 0 8.6169 0.395493 8.6169 0.883359C8.6169 1.19364 8.77688 1.46657 9.01885 1.62414L6.3233 5.37763L1.7369 3.71524C1.75635 3.64238 1.76672 3.56581 1.76672 3.48681C1.76672 2.99894 1.37123 2.60345 0.883359 2.60345C0.395493 2.60345 0 2.99894 0 3.48681C0 3.97468 0.395493 4.37017 0.883359 4.37017C0.942919 4.37017 1.0011 4.36427 1.05736 4.35304L2.66588 11.2202H16.3657L17.9545 4.35533C18.007 4.36508 18.0612 4.37017 18.1166 4.37017C18.6044 4.37017 18.9999 3.97468 18.9999 3.48681C18.9999 2.99894 18.6044 2.60345 18.1166 2.60345C17.6287 2.60345 17.2332 2.99894 17.2332 3.48681C17.2332 3.5848 17.2492 3.67907 17.2786 3.76716L12.6773 5.37763L9.99155 1.61761ZM2.63476 12.9868H16.3346V14.6605H2.63476V12.9868Z" fill="#38B0B0"/>
</svg>
