<svg width="28" height="33" viewBox="0 0 28 33" fill="none" xmlns="http://www.w3.org/2000/svg">
<path d="M4.23828 6.47597L5.63702 28.8558C5.70346 30.1489 6.64411 31.0938 7.875 31.0938H20.7434C21.9792 31.0938 22.9023 30.1489 22.9814 28.8558L24.3801 6.47597" stroke="#9CA4B5" stroke-width="2.23798" stroke-linecap="round" stroke-linejoin="round"/>
<path d="M2 6.47597H26.6178H2Z" fill="#9CA4B5"/>
<path d="M2 6.47597H26.6178" stroke="#9CA4B5" stroke-width="2.23798" stroke-miterlimit="10" stroke-linecap="round"/>
<path d="M9.83293 6.47597V3.67849C9.83229 3.45789 9.87526 3.23934 9.95938 3.0354C10.0435 2.83147 10.1671 2.64617 10.3231 2.49018C10.4791 2.33419 10.6644 2.21058 10.8683 2.12646C11.0723 2.04234 11.2908 1.99936 11.5114 2.00001H17.1064C17.327 1.99936 17.5455 2.04234 17.7495 2.12646C17.9534 2.21058 18.1387 2.33419 18.2947 2.49018C18.4507 2.64617 18.5743 2.83147 18.6584 3.0354C18.7425 3.23934 18.7855 3.45789 18.7849 3.67849V6.47597M14.3089 10.9519V26.6178M9.27344 10.9519L9.83293 26.6178M19.3444 10.9519L18.7849 26.6178" stroke="#9CA4B5" stroke-width="2.23798" stroke-linecap="round" stroke-linejoin="round"/>
</svg>
