<svg width="26" height="28" viewBox="0 0 26 28" fill="none" xmlns="http://www.w3.org/2000/svg">
<path d="M3.5 28H1.5C1.10218 28 0.720644 27.8525 0.43934 27.5899C0.158035 27.3274 0 26.9713 0 26.6V18.2C0 17.8287 0.158035 17.4726 0.43934 17.2101C0.720644 16.9475 1.10218 16.8 1.5 16.8H3.5C3.89782 16.8 4.27936 16.9475 4.56066 17.2101C4.84196 17.4726 5 17.8287 5 18.2V26.6C5 26.9713 4.84196 27.3274 4.56066 27.5899C4.27936 27.8525 3.89782 28 3.5 28ZM17.5 28H15.5C15.1022 28 14.7206 27.8525 14.4393 27.5899C14.158 27.3274 14 26.9713 14 26.6V12.6C14 12.2287 14.158 11.8726 14.4393 11.61C14.7206 11.3475 15.1022 11.2 15.5 11.2H17.5C17.8978 11.2 18.2794 11.3475 18.5607 11.61C18.842 11.8726 19 12.2287 19 12.6V26.6C19 26.9713 18.842 27.3274 18.5607 27.5899C18.2794 27.8525 17.8978 28 17.5 28ZM24.5 28H22.5C22.1022 28 21.7206 27.8525 21.4393 27.5899C21.158 27.3274 21 26.9713 21 26.6V6.06667C21 5.69536 21.158 5.33927 21.4393 5.07672C21.7206 4.81417 22.1022 4.66667 22.5 4.66667H24.5C24.8978 4.66667 25.2794 4.81417 25.5607 5.07672C25.842 5.33927 26 5.69536 26 6.06667V26.6C26 26.9713 25.842 27.3274 25.5607 27.5899C25.2794 27.8525 24.8978 28 24.5 28ZM10.5 28H8.5C8.10217 28 7.72064 27.8525 7.43934 27.5899C7.15803 27.3274 7 26.9713 7 26.6V1.4C7 1.0287 7.15803 0.672601 7.43934 0.410051C7.72064 0.1475 8.10217 0 8.5 0H10.5C10.8978 0 11.2794 0.1475 11.5607 0.410051C11.842 0.672601 12 1.0287 12 1.4V26.6C12 26.9713 11.842 27.3274 11.5607 27.5899C11.2794 27.8525 10.8978 28 10.5 28Z" fill="#9CA4B5"/>
</svg>
