<svg width="22" height="22" viewBox="0 0 22 22" fill="none" xmlns="http://www.w3.org/2000/svg">
<path d="M13.75 4.58333L17.4166 8.24999M19.4095 6.24433C19.8941 5.7598 20.1665 5.10259 20.1665 4.41728C20.1666 3.73196 19.8945 3.07468 19.4099 2.59003C18.9254 2.10539 18.2682 1.83306 17.5829 1.83298C16.8976 1.83289 16.2403 2.10505 15.7556 2.58958L3.52181 14.8262C3.30898 15.0384 3.15158 15.2996 3.06348 15.587L1.85256 19.5763C1.82887 19.6556 1.82708 19.7398 1.84739 19.82C1.86769 19.9002 1.90932 19.9735 1.96788 20.0319C2.02643 20.0904 2.09972 20.1319 2.17996 20.1521C2.2602 20.1722 2.34441 20.1703 2.42365 20.1465L6.4139 18.9365C6.70097 18.8492 6.96222 18.6927 7.17473 18.4809L19.4095 6.24433Z" stroke="#9CA4B5" stroke-width="2" stroke-linecap="round" stroke-linejoin="round"/>
</svg>
