<svg width="23" height="24" viewBox="0 0 23 24" fill="none" xmlns="http://www.w3.org/2000/svg">
<path fill-rule="evenodd" clip-rule="evenodd" d="M11.3623 7.81396C10.2521 7.81396 9.18737 8.25499 8.40233 9.04003C7.6173 9.82507 7.17627 10.8898 7.17627 12C7.17627 13.1102 7.6173 14.175 8.40233 14.96C9.18737 15.745 10.2521 16.1861 11.3623 16.1861C12.4725 16.1861 13.5373 15.745 14.3223 14.96C15.1073 14.175 15.5484 13.1102 15.5484 12C15.5484 10.8898 15.1073 9.82507 14.3223 9.04003C13.5373 8.25499 12.4725 7.81396 11.3623 7.81396ZM8.85069 12C8.85069 11.3339 9.11531 10.695 9.58633 10.224C10.0573 9.753 10.6962 9.48838 11.3623 9.48838C12.0284 9.48838 12.6673 9.753 13.1383 10.224C13.6093 10.695 13.8739 11.3339 13.8739 12C13.8739 12.6661 13.6093 13.305 13.1383 13.776C12.6673 14.247 12.0284 14.5116 11.3623 14.5116C10.6962 14.5116 10.0573 14.247 9.58633 13.776C9.11531 13.305 8.85069 12.6661 8.85069 12Z" fill="#9CA4B5"/>
<path fill-rule="evenodd" clip-rule="evenodd" d="M11.3341 0C10.8374 0 10.4232 -2.07923e-08 10.0839 0.0223256C9.73702 0.0367699 9.39493 0.108433 9.07143 0.234419C8.69887 0.388565 8.36033 0.614593 8.07513 0.899595C7.78994 1.1846 7.56368 1.52299 7.40929 1.89544C7.24743 2.28614 7.20389 2.69916 7.18603 3.14791C7.18424 3.31202 7.1408 3.473 7.05977 3.61573C6.97874 3.75845 6.86278 3.87826 6.72277 3.96391C6.57864 4.04261 6.41687 4.08339 6.25266 4.08241C6.08844 4.08143 5.92717 4.03873 5.78398 3.95833C5.38659 3.74847 5.00705 3.57991 4.58733 3.52409C4.18764 3.47152 3.78151 3.49819 3.39213 3.60257C3.00274 3.70696 2.63773 3.88701 2.31794 4.13247C2.04755 4.35001 1.81485 4.61061 1.62919 4.90381C1.43943 5.18735 1.2318 5.54567 0.983984 5.97544L0.956077 6.02456C0.707147 6.45433 0.500635 6.81265 0.351054 7.11851C0.194775 7.43777 0.0719841 7.75256 0.0273329 8.10084C-0.0791598 8.9079 0.139273 9.72421 0.634589 10.3702C0.892449 10.7062 1.22845 10.9507 1.60798 11.1896C1.74948 11.2732 1.86737 11.3915 1.95056 11.5333C2.03375 11.6751 2.07951 11.8357 2.08352 12C2.07951 12.1643 2.03375 12.3249 1.95056 12.4667C1.86737 12.6085 1.74948 12.7268 1.60798 12.8104C1.22845 13.0493 0.893566 13.2938 0.634589 13.6298C0.389138 13.9496 0.209079 14.3146 0.104694 14.704C0.000309697 15.0933 -0.026357 15.4995 0.0262167 15.8992C0.0719842 16.2474 0.193659 16.5622 0.349938 16.8815C0.500635 17.1873 0.707147 17.5457 0.956077 17.9754L0.983984 18.0246C1.2318 18.4543 1.43943 18.8127 1.62919 19.0962C1.82677 19.3898 2.03887 19.6543 2.31794 19.8664C2.63765 20.1121 3.00262 20.2923 3.39201 20.3969C3.7814 20.5015 4.18757 20.5283 4.58733 20.4759C5.00705 20.4201 5.38659 20.2527 5.78398 20.0417C5.927 19.9614 6.08808 19.9187 6.2521 19.9177C6.41612 19.9168 6.5777 19.9575 6.72166 20.0361C6.86244 20.1211 6.97913 20.2407 7.06061 20.3835C7.14209 20.5263 7.18565 20.6877 7.18715 20.8521C7.20389 21.3008 7.24743 21.7139 7.4104 22.1046C7.56455 22.4771 7.79058 22.8157 8.07558 23.1009C8.36058 23.386 8.69897 23.6123 9.07143 23.7667C9.39515 23.9007 9.73003 23.9531 10.0839 23.9766C10.4232 24 10.8374 24 11.3341 24H11.3899C11.8867 24 12.3008 24 12.6402 23.9777C12.9951 23.9531 13.3289 23.9007 13.6526 23.7656C14.0252 23.6114 14.3637 23.3854 14.6489 23.1004C14.9341 22.8154 15.1604 22.477 15.3148 22.1046C15.4766 21.7139 15.5202 21.3008 15.538 20.8521C15.5396 20.6878 15.583 20.5266 15.664 20.3836C15.7451 20.2407 15.8611 20.1207 16.0013 20.035C16.1455 19.9564 16.3073 19.9159 16.4715 19.917C16.6358 19.9182 16.797 19.9611 16.9401 20.0417C17.3375 20.2515 17.717 20.4201 18.1367 20.4748C18.9438 20.5813 19.7601 20.3629 20.4061 19.8675C20.6852 19.6532 20.8973 19.3898 21.0949 19.0962C21.2846 18.8127 21.4923 18.4543 21.7401 18.0246L21.768 17.9754C22.0169 17.5457 22.2234 17.1873 22.373 16.8815C22.5293 16.5622 22.6521 16.2463 22.6967 15.8992C22.8032 15.0921 22.5848 14.2758 22.0895 13.6298C21.8316 13.2938 21.4956 13.0493 21.1161 12.8104C20.9746 12.7268 20.8567 12.6085 20.7735 12.4667C20.6903 12.3249 20.6446 12.1643 20.6405 12C20.6405 11.6897 20.8102 11.3816 21.1161 11.1896C21.4956 10.9507 21.8305 10.7062 22.0895 10.3702C22.3349 10.0504 22.515 9.68543 22.6194 9.29604C22.7238 8.90666 22.7504 8.50053 22.6978 8.10084C22.6447 7.75782 22.5353 7.42591 22.3741 7.11851C22.1835 6.74763 21.9814 6.3828 21.768 6.02456L21.7401 5.97544C21.5362 5.61163 21.321 5.25425 21.0949 4.90381C20.9092 4.61092 20.6765 4.35068 20.4061 4.13358C20.0864 3.88794 19.7214 3.70768 19.3321 3.6031C18.9427 3.49852 18.5365 3.47168 18.1367 3.52409C17.717 3.57991 17.3375 3.74735 16.9401 3.95833C16.797 4.03854 16.636 4.08112 16.472 4.0821C16.308 4.08308 16.1464 4.04241 16.0024 3.96391C15.862 3.87853 15.7456 3.75884 15.6642 3.61609C15.5827 3.47335 15.5389 3.31223 15.5369 3.14791C15.5202 2.69916 15.4766 2.28614 15.3137 1.89544C15.1595 1.52288 14.9335 1.18434 14.6485 0.899148C14.3635 0.613955 14.0251 0.387699 13.6526 0.233302C13.3289 0.0993488 12.994 0.0468838 12.6402 0.0234419C12.3008 3.11885e-08 11.8867 0 11.3899 0H11.3341ZM9.71217 1.78047C9.79812 1.74474 9.92873 1.71237 10.1978 1.6934C10.4735 1.67442 10.8307 1.67442 11.362 1.67442C11.8934 1.67442 12.2506 1.67442 12.5263 1.6934C12.7953 1.71237 12.9259 1.74474 13.0119 1.78047C13.3546 1.92223 13.6258 2.19349 13.7676 2.53619C13.8123 2.64335 13.8491 2.81191 13.8636 3.21042C13.8971 4.09451 14.3537 4.94623 15.1641 5.41395C15.9745 5.88279 16.9401 5.85154 17.7226 5.43851C18.0753 5.25209 18.2394 5.19963 18.3555 5.18512C18.7223 5.13665 19.0933 5.23583 19.387 5.46084C19.4606 5.51777 19.5544 5.61488 19.7051 5.83814C19.8603 6.06809 20.0389 6.3773 20.3045 6.83721C20.5702 7.29712 20.7477 7.60744 20.8694 7.85526C20.9888 8.09749 21.0257 8.22698 21.0368 8.31963C21.0853 8.6864 20.9861 9.0574 20.7611 9.35107C20.6897 9.44372 20.5624 9.55981 20.2253 9.77191C19.4751 10.243 18.9661 11.0646 18.9661 12C18.9661 12.9354 19.4751 13.757 20.2253 14.2281C20.5624 14.4402 20.6897 14.5563 20.7611 14.6489C20.9866 14.9425 21.0848 15.3131 21.0368 15.6804C21.0257 15.773 20.9877 15.9036 20.8694 16.1447C20.7477 16.3937 20.5702 16.7029 20.3045 17.1628C20.0389 17.6227 19.8591 17.9319 19.7051 18.1619C19.5544 18.3851 19.4606 18.4822 19.387 18.5392C19.0933 18.7642 18.7223 18.8633 18.3555 18.8149C18.2394 18.8004 18.0765 18.7479 17.7226 18.5615C16.9412 18.1485 15.9745 18.1172 15.1641 18.5849C14.3537 19.0538 13.8971 19.9055 13.8636 20.7896C13.8491 21.1881 13.8123 21.3567 13.7676 21.4638C13.6975 21.6333 13.5946 21.7872 13.465 21.9169C13.3353 22.0466 13.1813 22.1494 13.0119 22.2195C12.9259 22.2553 12.7953 22.2876 12.5263 22.3066C12.2506 22.3256 11.8934 22.3256 11.362 22.3256C10.8307 22.3256 10.4735 22.3256 10.1978 22.3066C9.92873 22.2876 9.79812 22.2553 9.71217 22.2195C9.54272 22.1494 9.38876 22.0466 9.25909 21.9169C9.12942 21.7872 9.02658 21.6333 8.95645 21.4638C8.9118 21.3567 8.87496 21.1881 8.86045 20.7896C8.82696 19.9055 8.3704 19.0538 7.55998 18.586C6.74957 18.1172 5.78398 18.1485 5.00147 18.5615C4.64873 18.7479 4.48464 18.8004 4.36854 18.8149C4.00177 18.8633 3.63077 18.7642 3.3371 18.5392C3.26343 18.4822 3.16966 18.3851 3.01896 18.1619C2.809 17.835 2.60909 17.5019 2.41952 17.1628C2.15384 16.7029 1.97636 16.3926 1.85468 16.1447C1.73524 15.9025 1.6984 15.773 1.68724 15.6804C1.63878 15.3136 1.73795 14.9426 1.96296 14.6489C2.0344 14.5563 2.16166 14.4402 2.49878 14.2281C3.24891 13.757 3.75794 12.9354 3.75794 12C3.75794 11.0646 3.24891 10.243 2.49878 9.77191C2.16166 9.55981 2.0344 9.44372 1.96296 9.35107C1.73795 9.0574 1.63878 8.6864 1.68724 8.31963C1.6984 8.22698 1.73636 8.09637 1.85468 7.85526C1.97636 7.60633 2.15384 7.29712 2.41952 6.83721C2.68519 6.3773 2.86491 6.06809 3.01896 5.83814C3.16966 5.61488 3.26343 5.51777 3.3371 5.46084C3.63077 5.23583 4.00177 5.13665 4.36854 5.18512C4.48464 5.19963 4.64761 5.25209 5.00147 5.43851C5.78287 5.85154 6.74957 5.88279 7.55998 5.41395C8.3704 4.94623 8.82696 4.09451 8.86045 3.21042C8.87496 2.81191 8.9118 2.64335 8.95645 2.53619C9.09822 2.19349 9.36947 1.92223 9.71217 1.78047Z" fill="#9CA4B5"/>
</svg>
