<svg width="14" height="16" viewBox="0 0 14 16" fill="none" xmlns="http://www.w3.org/2000/svg">
<path d="M6.25006 0.5V4.25H4.75006V0.5H6.25006ZM3.25006 1.25V4.25H1.75006V1.25H3.25006ZM9.25006 1.25V4.25H7.75006V1.25H9.25006ZM0.195312 5H13.7501V8.75C13.7501 9.54565 13.434 10.3087 12.8714 10.8713C12.3088 11.4339 11.5457 11.75 10.7501 11.75H10.0503C9.64714 12.6788 8.97163 13.4633 8.11306 14H13.0001V15.5H0.250062V14H2.87956C2.22692 13.5931 1.67809 13.0396 1.27659 12.3836C0.875099 11.7276 0.631994 10.9871 0.566562 10.2208V10.2155L0.195312 5ZM10.4313 10.25H10.7501C11.1479 10.25 11.5294 10.092 11.8107 9.81066C12.092 9.52936 12.2501 9.14782 12.2501 8.75V6.5H10.6991L10.4343 10.2155V10.2208L10.4313 10.25ZM9.19531 6.5H1.80556L2.06131 10.0977C2.13636 10.9581 2.53112 11.759 3.16771 12.3426C3.8043 12.9261 4.63648 13.2499 5.50006 13.25C7.04431 13.25 8.37706 12.215 8.80906 10.7833C8.87656 10.562 8.91781 10.343 8.93881 10.0977L9.19531 6.5Z" fill="#9CA4B5"/>
</svg>
