<svg width="35" height="35" viewBox="0 0 35 35" fill="none" xmlns="http://www.w3.org/2000/svg">
<circle cx="17.5" cy="17.5" r="17.2756" fill="#148C35" fill-opacity="0.1" stroke="#BAE8C6" stroke-width="0.448718"/>
<circle cx="17.5001" cy="17.5" r="14.1346" fill="#148C35" fill-opacity="0.1" stroke="#BAE8C6" stroke-width="0.448718"/>
<circle cx="17.5002" cy="17.5" r="11.4423" fill="#148C35" fill-opacity="0.1" stroke="#BAE8C6" stroke-width="0.448718"/>
<circle cx="17.4998" cy="17.5" r="8.07692" fill="#148C35"/>
<path d="M16.4732 20.1923L15.8468 20.835L16.4732 21.4454L17.0995 20.835L16.4732 20.1923ZM22.1647 15.8991C22.5196 15.5532 22.527 14.9851 22.1811 14.6301C21.8352 14.2751 21.267 14.2678 20.912 14.6137L22.1647 15.8991ZM12.8351 17.9002L15.8468 20.835L17.0995 19.5496L14.0878 16.6147L12.8351 17.9002ZM17.0995 20.835L22.1647 15.8991L20.912 14.6137L15.8468 19.5496L17.0995 20.835Z" fill="white"/>
</svg>
