<svg width="25" height="20" viewBox="0 0 25 20" fill="none" xmlns="http://www.w3.org/2000/svg">
<path d="M22.6332 2.67101H18.1955V0.895935H7.10133V2.67101H2.66364C2.03594 2.67101 1.43394 2.92037 0.990085 3.36422C0.54623 3.80807 0.296875 4.41007 0.296875 5.03778V17.3154C0.296875 17.9431 0.54623 18.5451 0.990085 18.9889C1.43394 19.4328 2.03594 19.6821 2.66364 19.6821H22.6332C23.2609 19.6821 23.8629 19.4328 24.3068 18.9889C24.7506 18.5451 25 17.9431 25 17.3154V5.03778C25 4.41007 24.7506 3.80807 24.3068 3.36422C23.8629 2.92037 23.2609 2.67101 22.6332 2.67101ZM12.6478 18.3508C8.69298 18.3508 5.47654 15.132 5.47654 11.1772C5.47654 7.2223 8.69298 4.0035 12.6478 4.0035C16.6027 4.0035 19.8215 7.2223 19.8215 11.1772C19.8215 15.132 16.6027 18.3485 12.6478 18.3485V18.3508ZM12.6478 6.36908C12.0164 6.36916 11.3911 6.49362 10.8077 6.73535C10.2243 6.97708 9.69424 7.33135 9.24777 7.77793C8.8013 8.22451 8.44716 8.75466 8.20557 9.33811C7.96399 9.92155 7.83968 10.5469 7.83976 11.1784C7.83984 11.8098 7.96429 12.4351 8.20603 13.0185C8.44776 13.6019 8.80202 14.132 9.24861 14.5784C9.69519 15.0249 10.2253 15.379 10.8088 15.6206C11.3922 15.8622 12.0175 15.9865 12.649 15.9864C13.9245 15.9863 15.1477 15.4794 16.0495 14.5774C16.9513 13.6754 17.4579 12.4521 17.4577 11.1766C17.4575 9.90108 16.9507 8.67789 16.0487 7.77608C15.1467 6.87428 13.9233 6.36774 12.6478 6.3679V6.36908Z" fill="white"/>
</svg>
