<svg width="36" height="35" viewBox="0 0 36 35" fill="none" xmlns="http://www.w3.org/2000/svg">
<path d="M33.9592 15.1692C34.5035 16.4695 34.7992 17.8656 34.7992 19.3205C34.7992 22.7796 33.1276 25.9128 30.4195 28.1892C30.2165 28.3549 30.0522 28.5631 29.9382 28.799C29.8241 29.035 29.7631 29.293 29.7592 29.555V33.6005H26.3992L25.0653 31.697C24.9621 31.5547 24.8184 31.4468 24.653 31.3875C24.4875 31.3281 24.308 31.3201 24.1379 31.3644C21.2126 32.1134 18.1458 32.1134 15.2205 31.3644C15.0504 31.3201 14.8709 31.3281 14.7055 31.3875C14.54 31.4468 14.3963 31.5547 14.2931 31.697L12.9592 33.6005H9.59922V29.5953C9.59948 29.3231 9.53356 29.0548 9.40713 28.8136C9.2807 28.5725 9.09756 28.3657 8.87346 28.211C7.06746 26.9678 1.19922 24.5318 1.19922 21.9379V19.3205C1.19922 18.3259 1.95186 17.5212 2.87922 17.5212C3.89898 17.5212 4.73058 17.1247 5.06658 16.0713C6.35514 12.036 9.9873 8.79693 14.6745 7.42773" stroke="#38B0B0" stroke-width="2.4" stroke-linecap="round" stroke-linejoin="round"/>
<path d="M10.4395 16.7998H10.4549" stroke="#38B0B0" stroke-width="1.48235" stroke-linecap="round" stroke-linejoin="round"/>
<path d="M20.1389 20.833V3.47897H24.7083C26.831 3.47897 28.4027 3.90836 29.4235 4.76715C30.4606 5.62594 30.9791 6.87362 30.9791 8.51018C30.9791 9.61203 30.7279 10.5599 30.2256 11.3539C29.7233 12.1317 28.9779 12.7312 27.9895 13.1525C27.0173 13.5738 25.8101 13.7844 24.368 13.7844H22.3264V20.833H20.1389ZM18.0243 17.5275V15.9476H26.3367V17.5275H18.0243ZM18.0243 13.7844V11.9372H23.5902V13.7844H18.0243ZM24.052 11.9372C25.0405 11.9372 25.8749 11.8319 26.5555 11.6213C27.2522 11.4106 27.787 11.0622 28.1596 10.5761C28.5323 10.09 28.7187 9.42568 28.7187 8.5831C28.7187 7.48125 28.3784 6.66297 27.6978 6.12825C27.0173 5.59354 25.956 5.32618 24.5138 5.32618H22.3264V11.9372H24.052Z" fill="#38B0B0"/>
</svg>
