<svg width="32" height="32" viewBox="0 0 32 32" fill="none" xmlns="http://www.w3.org/2000/svg">
<path d="M22.0996 3.19271C23.0629 3.37601 23.6349 3.57881 24.1276 4.18721C24.7477 4.94901 24.7152 5.77191 24.6489 7.41771C24.4149 13.3366 23.0889 20.7999 15.6009 20.7999C8.11294 20.7999 6.78564 13.3379 6.54904 7.41771C6.48404 5.77191 6.45154 4.94771 7.06904 4.18721C7.68784 3.42541 8.42754 3.30061 9.90824 3.05101C11.7895 2.74283 13.6933 2.59194 15.5996 2.59991C16.5339 2.60164 17.4006 2.63111 18.1996 2.68831" stroke="#38B0B0" stroke-width="2.4" stroke-linecap="round"/>
<path d="M24.6996 6.5L25.9333 6.9108C27.2203 7.3398 27.8638 7.5543 28.2317 8.0652C28.5996 8.5761 28.5996 9.256 28.5996 10.6106V10.7055C28.5996 11.8235 28.5996 12.3838 28.3305 12.8414C28.0614 13.299 27.5713 13.5707 26.5937 14.1154L22.7496 16.25M6.49961 6.5L5.26591 6.9108C3.97891 7.3398 3.33541 7.5543 2.96751 8.0652C2.59961 8.5761 2.59961 9.256 2.59961 10.6106V10.7055C2.59961 11.8235 2.59961 12.3838 2.86871 12.8414C3.13781 13.299 3.62791 13.5707 4.60551 14.1154L8.44961 16.25" stroke="#38B0B0" stroke-width="2.4"/>
<path d="M15.5996 22.0996V24.6996" stroke="#38B0B0" stroke-width="2.4" stroke-linecap="round"/>
<path d="M20.1488 28.5996H11.0488L11.4908 26.3948C11.5497 26.1002 11.7088 25.8351 11.9411 25.6446C12.1733 25.454 12.4644 25.3498 12.7648 25.3496H18.4328C18.7332 25.3498 19.0243 25.454 19.2566 25.6446C19.4889 25.8351 19.6479 26.1002 19.7068 26.3948L20.1488 28.5996Z" stroke="#38B0B0" stroke-width="2.4" stroke-linecap="round" stroke-linejoin="round"/>
<path d="M23.3988 28.5996H7.79883" stroke="#38B0B0" stroke-width="2.4" stroke-linecap="round"/>
</svg>
