<svg width="32" height="29" viewBox="0 0 32 29" fill="none" xmlns="http://www.w3.org/2000/svg">
<path d="M24.3122 17.4122V11.8962C24.3122 11.6381 24.2097 11.3905 24.0271 11.208C23.8446 11.0254 23.597 10.9229 23.3388 10.9229H2.57301C2.31485 10.9229 2.06726 11.0254 1.88471 11.208C1.70216 11.3905 1.59961 11.6381 1.59961 11.8962V17.4122C1.59961 19.9938 2.62515 22.4697 4.45062 24.2951C6.2761 26.1206 8.75197 27.1461 11.3336 27.1461H14.5782C17.1599 27.1461 19.6357 26.1206 21.4612 24.2951C23.2867 22.4697 24.3122 19.9938 24.3122 17.4122Z" stroke="#38B0B0" stroke-width="2.4" stroke-linecap="round" stroke-linejoin="round"/>
<path d="M22.6875 10.9238H26.7433C27.819 10.9238 28.8506 11.3511 29.6112 12.1118C30.3718 12.8724 30.7991 13.904 30.7991 14.9797C30.7991 16.0553 30.3718 17.0869 29.6112 17.8476C28.8506 18.6082 27.819 19.0355 26.7433 19.0355H24.3098" stroke="#38B0B0" stroke-width="2.4" stroke-linecap="round" stroke-linejoin="round"/>
<path d="M16.2003 7.67815C16.2003 6.05582 17.3586 4.43349 19.6769 4.43349C20.9062 4.43349 22.0851 3.94517 22.9543 3.07594M9.71094 7.67815V6.86699C9.71094 5.57618 10.2237 4.33824 11.1364 3.42551C12.0492 2.51277 13.2871 2 14.5779 2" stroke="#38B0B0" stroke-width="2.4" stroke-linecap="round" stroke-linejoin="round"/>
</svg>
