<svg width="31" height="30" viewBox="0 0 31 30" fill="none" xmlns="http://www.w3.org/2000/svg">
<path fill-rule="evenodd" clip-rule="evenodd" d="M16.1415 3.42642C15.9632 3.37006 15.7702 3.38328 15.6013 3.46342C15.5179 3.50248 15.4438 3.55905 15.3842 3.62929C15.3247 3.69952 15.2809 3.78176 15.2559 3.87042L14.6689 6.13235C14.4635 6.92279 14.1655 7.68618 13.7809 8.40662C13.1827 9.52525 12.2787 10.3849 11.44 11.1076L9.66647 12.637C9.53096 12.7541 9.42511 12.9017 9.35758 13.0676C9.29006 13.2335 9.26278 13.4131 9.27797 13.5916L10.2794 25.1763C10.3038 25.4576 10.4327 25.7197 10.6406 25.9107C10.8486 26.1018 11.1206 26.2081 11.403 26.2086H17.1368C21.0045 26.2086 24.2642 23.5174 24.8895 19.9025L25.759 14.8705C25.7872 14.7084 25.7796 14.542 25.7368 14.383C25.694 14.2241 25.617 14.0765 25.5112 13.9504C25.4053 13.8243 25.2732 13.7229 25.1241 13.6533C24.9749 13.5836 24.8124 13.5474 24.6478 13.5472H18.2579C17.0529 13.5472 16.1365 12.4668 16.3314 11.2778L17.1491 6.29022C17.2622 5.60713 17.2303 4.90788 17.0554 4.23795C17.0058 4.06081 16.9125 3.89897 16.7841 3.7673C16.6556 3.63563 16.4962 3.53834 16.3203 3.48438L16.1415 3.42642ZM14.7971 1.79718C15.3937 1.51074 16.0773 1.46352 16.7076 1.66522L16.8864 1.72318C17.8447 2.03152 18.5921 2.79618 18.8462 3.77298C19.0842 4.69305 19.1286 5.65258 18.9744 6.58992L18.1567 11.5775C18.1542 11.5922 18.1549 11.6073 18.1589 11.6217C18.1628 11.6361 18.1698 11.6495 18.1795 11.6609C18.1891 11.6723 18.2011 11.6814 18.2146 11.6877C18.2282 11.694 18.2429 11.6972 18.2579 11.6972H24.6465C26.4965 11.6972 27.8976 13.3646 27.5819 15.1863L26.7124 20.2183C25.9255 24.7668 21.8555 28.0586 17.1368 28.0586H11.403C10.6576 28.0579 9.93944 27.7779 9.39033 27.2738C8.84122 26.7697 8.50101 26.078 8.43683 25.3354L7.43413 13.7507C7.39357 13.2802 7.46521 12.8068 7.64317 12.3695C7.82112 11.9321 8.10031 11.5432 8.4578 11.2347L10.2338 9.70532C11.0416 9.00972 11.7212 8.33508 12.1479 7.53465C12.4651 6.94366 12.7102 6.31676 12.8781 5.66738L13.4651 3.40668C13.5566 3.05763 13.7232 2.73276 13.9533 2.45476C14.1834 2.17677 14.4714 1.95235 14.7971 1.79718ZM4.4618 11.6984C4.70016 11.688 4.93332 11.77 5.11258 11.9275C5.29185 12.0849 5.40335 12.3055 5.4238 12.5432L6.62013 26.401C6.6404 26.6073 6.61839 26.8156 6.55544 27.0132C6.49249 27.2108 6.38992 27.3934 6.25401 27.55C6.1181 27.7066 5.95169 27.8339 5.76495 27.924C5.5782 28.0142 5.37505 28.0653 5.16789 28.0743C4.96073 28.0832 4.75391 28.0499 4.56007 27.9763C4.36622 27.9026 4.18943 27.7903 4.04047 27.646C3.89151 27.5018 3.77353 27.3287 3.69371 27.1373C3.6139 26.9459 3.57394 26.7403 3.57627 26.5329V12.6222C3.57605 12.3835 3.66807 12.154 3.83309 11.9816C3.99812 11.8093 4.22338 11.7086 4.4618 11.6984Z" fill="#38B0B0"/>
</svg>
