<svg width="52" height="52" viewBox="0 0 52 52" fill="none" xmlns="http://www.w3.org/2000/svg">
<path d="M17.4659 22.1334C19.8223 22.1334 21.7326 20.2232 21.7326 17.8668C21.7326 15.5103 19.8223 13.6001 17.4659 13.6001C15.1095 13.6001 13.1992 15.5103 13.1992 17.8668C13.1992 20.2232 15.1095 22.1334 17.4659 22.1334Z" stroke="white" stroke-width="2.10901" stroke-linecap="round" stroke-linejoin="round"/>
<path d="M38.7984 24.2668C38.7984 24.2668 23.865 30.6668 17.465 30.6668C14.0703 30.6668 10.8145 29.3182 8.41407 26.9177C6.01361 24.5173 4.66504 21.2615 4.66504 17.8668C4.66504 14.472 6.01361 11.2163 8.41407 8.81581C10.8145 6.41534 14.0703 5.06677 17.465 5.06677C23.865 5.06677 38.7984 11.4668 38.7984 11.4668M38.7984 24.2668V11.4668M38.7984 24.2668L47.3317 28.5334V7.20011L38.7984 11.4668" stroke="white" stroke-width="2.10901" stroke-linecap="round" stroke-linejoin="round"/>
<path d="M15.3311 30.4534L17.0377 41.3334C17.2511 42.4001 18.3177 43.4668 19.5977 43.4668H23.8644C25.1444 43.4668 25.7844 42.6134 25.5711 41.3334L23.6511 29.6001M25.2297 39.2001C25.2297 39.2001 32.2697 34.9334 40.8031 34.9334C41.9346 34.9334 43.0199 35.383 43.82 36.1831C44.6202 36.9833 45.0697 38.0685 45.0697 39.2001C45.0697 40.3317 44.6202 41.4169 43.82 42.2171C43.0199 43.0172 41.9346 43.4668 40.8031 43.4668H36.6644C35.5328 43.4668 34.4476 43.9163 33.6474 44.7164C32.8472 45.5166 32.3977 46.6018 32.3977 47.7334" stroke="white" stroke-width="2.10901" stroke-linecap="round" stroke-linejoin="round"/>
</svg>
