<svg width="49" height="48" viewBox="0 0 49 48" fill="none" xmlns="http://www.w3.org/2000/svg">
<path d="M35.2002 48V37.1395C35.2002 35.5684 34.5681 34.0616 33.4428 32.9506C32.3176 31.8397 30.7915 31.2156 29.2002 31.2156C27.2002 31.2156 0.400195 34.1775 0.400195 34.1775M30.2002 43.0634H0.200195M48.2002 43.0634H40.2002M19.2002 27.2663L25.0362 23.1492C25.5516 22.7855 25.9257 22.259 26.0966 21.6568C26.2676 21.0546 26.2251 20.4128 25.9762 19.8377L24.0062 15.302C23.2682 14.8774 20.4602 13.4438 16.2002 13.4438C11.9402 13.4438 9.1322 14.8774 8.3942 15.3L6.4242 19.8377C6.1748 20.4131 6.13204 21.0553 6.30301 21.6579C6.47397 22.2606 6.84839 22.7874 7.3642 23.1512L13.2002 27.2663M39.2002 34.9674C39.2002 34.9674 41.2002 38.1268 43.7002 38.1268C44.6285 38.1268 45.5187 37.7627 46.1751 37.1147C46.8314 36.4666 47.2002 35.5877 47.2002 34.6712C47.2002 32.7637 45.6322 31.2235 43.7002 31.2235C41.2002 31.2235 39.2002 34.375 39.2002 34.375V34.9674ZM15.9002 9.49457C15.9002 9.49457 12.7002 7.51994 12.7002 5.05164C12.7002 4.1362 13.0685 3.25826 13.7242 2.61094C14.3798 1.96363 15.269 1.59998 16.1962 1.59998C17.1234 1.59998 18.0126 1.96363 18.6682 2.61094C19.3239 3.25826 19.6922 4.1362 19.6922 5.05164C19.6922 7.51994 16.5002 9.49457 16.5002 9.49457H15.9002Z" stroke="white" stroke-width="2.08"/>
</svg>
