<svg width="40" height="39" viewBox="0 0 40 39" fill="none" xmlns="http://www.w3.org/2000/svg">
<path d="M30.5924 8.32853L29.9132 9.34973C29.8124 9.49973 27.6098 12.8417 26.8562 16.5599L25.457 14.1935C27.1778 12.7013 27.7466 9.79133 26.6768 7.05593C25.4408 3.89213 22.1456 2.34113 22.0046 2.27633L20.972 1.79993L21.4244 2.86373C21.4274 2.87093 21.5126 3.08693 21.5804 3.45833C20.9708 3.03614 20.338 2.64853 19.685 2.29733L19.2416 2.06813L19.076 2.54813C19.061 2.59373 18.758 3.48473 18.4904 4.74113C18.3778 4.572 18.2828 4.39187 18.2066 4.20353L17.8136 3.10913L17.3894 4.19213C17.3318 4.33793 15.9992 7.81133 17.2352 10.9757C17.2568 11.0315 17.2838 11.0837 17.3066 11.1383C17.213 11.0561 17.1218 10.9727 17.0228 10.8935C14.3936 8.80313 10.7834 9.16973 10.6316 9.18653L9.5036 9.30953L10.4192 9.99413C10.4252 9.99893 10.607 10.1405 10.8476 10.4261C9.5996 10.3469 8.6858 10.4021 8.639 10.4057L8.1428 10.4375L8.237 10.9379C8.246 10.9847 8.4248 11.9099 8.8142 13.1327C8.63424 13.0444 8.46359 12.9383 8.3048 12.8159L7.4246 12.0743L7.5926 13.2281C7.6118 13.3631 8.0378 16.1201 9.8396 18.2177C6.5492 17.8043 3.6404 19.9877 3.5186 20.0819L2.6096 20.7743L3.7376 20.8865C3.7448 20.8877 3.971 20.9153 4.3214 21.0353C3.66348 21.377 3.02528 21.7554 2.4098 22.1687L2 22.4555L2.3288 22.8359C2.36 22.8725 2.975 23.5745 3.9188 24.4241C3.71984 24.4414 3.51964 24.4388 3.3212 24.4163L2.1956 24.2369L2.915 25.1417C3.0116 25.2647 5.3318 28.1429 8.6342 28.5719C10.5146 28.8161 12.3494 28.3523 13.6718 27.3005C14.4548 26.6765 14.9936 25.8695 15.2552 24.9821L17.6486 25.4063C15.3614 26.4419 13.9478 27.5945 13.1396 28.4219C12.6476 28.9253 12.4328 29.2583 12.4244 29.2721L12.0566 29.8463L15.8516 29.1809L15.1286 29.9243C15.1286 29.9243 23.6498 28.4489 28.7132 32.0795L27.647 33.1775L29.8244 35.4191L30.6914 34.5269C31.2374 35.9693 31.5512 37.7999 31.5512 37.7999L33.212 36.0995L34.3682 37.2833L37.4918 34.0859L36.3356 32.9027L38 31.1987C38 31.1987 36.2096 30.8657 34.8026 30.2969L35.6708 29.4029L33.4928 27.1613L32.4248 28.2599C28.8956 23.0489 30.3308 14.2793 30.3308 14.2793L29.8052 14.8211L30.5924 8.32853ZM19.7438 3.34913C20.4015 3.73091 21.0372 4.14916 21.6482 4.60193C21.6182 5.22593 21.4748 5.98613 21.101 6.83213C20.2634 6.49073 19.652 6.04673 19.2122 5.62073C19.3814 4.66913 19.5986 3.84413 19.7438 3.34913ZM22.487 3.57053C23.489 4.20893 25.1228 5.48693 25.8656 7.38833C26.96 10.1909 26.1326 13.1831 24.0224 14.0585C23.9381 14.0941 23.8513 14.1232 23.7626 14.1455L23.762 14.1461C22.61 14.4545 21.1634 13.8833 20.4716 12.8465C19.7348 11.7431 19.9304 10.2869 21.0236 8.74493C22.5434 6.59453 22.6334 4.69433 22.487 3.57053ZM23.204 15.2123L24.2708 17.8433C23.72 17.0717 23.258 16.1657 22.871 15.2525C22.9832 15.2447 23.093 15.2273 23.204 15.2123ZM18.0476 10.6415C17.306 8.74373 17.6252 6.64913 17.9174 5.46893C18.3992 6.14153 19.2614 7.02293 20.6942 7.62833C20.5796 7.82213 20.4548 8.01833 20.3126 8.21873C18.7988 10.3577 19.046 11.9555 19.4948 12.9017C18.8653 12.2533 18.3731 11.4846 18.0476 10.6415ZM20.2394 14.5991C20.3594 16.1801 20.804 18.0377 21.9158 19.9601L19.3166 18.1217C19.9046 16.8749 19.8752 15.3677 19.3088 13.9403C19.604 14.1893 19.913 14.4143 20.2394 14.5991ZM23.1122 21.5327L22.1504 22.5173L18.5294 19.2893C18.614 19.1951 18.6992 19.1027 18.7754 19.0019L18.8414 18.9047C18.854 18.8885 18.8696 18.8729 18.8822 18.8573C18.9344 18.7877 18.9764 18.7133 19.0238 18.6413L23.1122 21.5327ZM11.6858 10.0541C12.866 10.0871 14.906 10.3445 16.4858 11.6009C18.8144 13.4525 19.5776 16.4627 18.1892 18.3101C18.1329 18.3836 18.0724 18.4537 18.008 18.5201C17.1656 19.3829 15.6356 19.6373 14.5262 19.1015C13.346 18.5309 12.7952 17.1725 12.977 15.2771C13.2278 12.6347 12.3662 10.9475 11.6858 10.0541ZM19.5704 21.0095C18.9837 20.6539 18.4047 20.2857 17.834 19.9049C17.9324 19.8365 18.0194 19.7549 18.1106 19.6781L18.095 19.6937L19.5704 21.0095ZM9.2096 11.2817C9.71 11.2733 10.5362 11.2847 11.471 11.3771C11.7548 11.9309 12.0056 12.6617 12.101 13.5845C11.2088 13.7225 10.4624 13.6565 9.872 13.5167C9.61113 12.7842 9.39001 12.0381 9.2096 11.2817ZM8.681 14.0555C9.4274 14.3873 10.6076 14.7011 12.1424 14.4821C12.1394 14.7095 12.1292 14.9441 12.1052 15.1895C11.8544 17.8187 12.8564 19.0697 13.7114 19.6529C13.5006 19.5969 13.2912 19.5291 13.0832 19.4495C12.6443 19.141 12.1709 18.8846 11.6726 18.6857C11.5634 18.6083 11.4524 18.5369 11.3462 18.4517C9.7688 17.1971 9.0104 15.2249 8.681 14.0555ZM14.4128 20.6963C14.8148 20.7407 15.2144 20.7413 15.608 20.7035C16.053 21.4276 16.5392 22.1256 17.0642 22.7939L15.365 22.7231C15.2076 21.9833 14.8818 21.2898 14.4128 20.6963ZM3.3374 22.6259C3.98169 22.2246 4.64727 21.8584 5.3312 21.5291C5.8508 21.8591 6.4292 22.3559 6.9716 23.1017C6.2726 23.6849 5.597 24.0173 5.0198 24.2039C4.43051 23.7091 3.86887 23.1824 3.3374 22.6259ZM8.7446 27.6821C6.7634 27.4247 5.1284 26.1227 4.262 25.2887C5.0702 25.1843 6.2414 24.8405 7.4528 23.8517C7.5644 24.0473 7.6714 24.2563 7.7738 24.4787C8.8652 26.8727 10.3502 27.4265 11.3768 27.4841C10.5608 27.7259 9.6626 27.8015 8.7446 27.6821ZM14.5112 24.2681V24.2693C14.2148 25.4501 13.0256 26.4671 11.804 26.5835C10.5044 26.7071 9.3548 25.8257 8.567 24.0989C7.4678 21.6947 5.888 20.6933 4.8566 20.2787C5.8886 19.6913 7.7726 18.8507 9.7574 19.1075C10.2848 19.1759 10.7858 19.3049 11.2532 19.4813C11.7164 19.7999 12.2024 20.0621 12.7016 20.2607C13.9814 21.1985 14.732 22.5731 14.5628 23.9945C14.5512 24.0865 14.534 24.1777 14.5112 24.2681ZM16.3106 28.4939L13.4006 29.0045C14.2082 28.1369 15.8744 26.7233 18.797 25.5659L19.4084 25.3247L16.3106 28.4939ZM19.586 25.1423L15.3896 24.3989C15.3962 24.3605 15.4058 24.3221 15.4112 24.2837L15.4202 24.1667C15.4226 24.1451 15.431 24.1241 15.4322 24.1031C15.4634 23.8415 15.4622 23.5823 15.4454 23.3243L18.3794 23.4485L17.9336 22.9247C17.2808 22.1591 16.7144 21.3485 16.2386 20.5937C16.596 20.5165 16.9432 20.3977 17.273 20.2397C18.7032 21.2071 20.1846 22.0966 21.7106 22.9043L21.752 22.9259L19.586 25.1423ZM36.665 34.0871L34.3676 36.4391L33.626 35.6759L35.9246 33.3239L36.665 34.0871ZM33.4928 28.0085L34.8476 29.4029L29.8238 34.5719L28.4696 33.1775L33.4928 28.0085ZM23.4482 21.1883L23.2508 20.9225C21.671 18.7871 21.041 16.6739 20.8526 14.8961C21.291 15.0815 21.7548 15.1999 22.2284 15.2471C22.889 16.8617 23.7908 18.4961 24.989 19.5257L25.0346 19.5653L23.4482 21.1883ZM25.4354 19.1555L23.7878 15.0935C23.9222 15.0545 24.0554 15.0113 24.1862 14.9579L24.2912 14.9093C24.3104 14.9009 24.332 14.8973 24.3518 14.8889C24.5725 14.7939 24.7847 14.6801 24.986 14.5487L26.852 17.7059L25.4354 19.1555ZM27.3314 17.2139C27.734 14.7089 28.9238 12.2549 29.6972 10.8599L29.1524 15.3497L27.3314 17.2139Z" fill="white"/>
</svg>
