<svg width="36" height="45" viewBox="0 0 36 45" fill="none" xmlns="http://www.w3.org/2000/svg">
<path d="M18.4108 7.06617C17.6833 7.06617 17.0629 6.80624 16.5496 6.28638C16.0348 5.76802 15.7774 5.13762 15.7774 4.39518C15.7774 3.89175 15.8815 3.4436 16.0898 3.05072C16.2981 2.65784 16.8356 1.89524 17.7024 0.762906C17.8872 0.520903 18.1175 0.399902 18.3932 0.399902C18.6719 0.399902 18.9065 0.520903 19.0972 0.762906C19.9625 1.89673 20.5001 2.65934 20.7098 3.05072C20.9195 3.44211 21.0237 3.89026 21.0222 4.39518C21.0222 5.13762 20.7685 5.76802 20.261 6.28638C19.7521 6.80624 19.1346 7.06617 18.4086 7.06617M7.91681 7.06617C7.1908 7.06617 6.5704 6.80624 6.0556 6.28638C5.5408 5.76653 5.28414 5.13612 5.2856 4.39518C5.2856 3.89175 5.38974 3.4436 5.59801 3.05072C5.80627 2.65784 6.34307 1.89524 7.20841 0.762906C7.39321 0.520903 7.62421 0.399902 7.90141 0.399902C8.18007 0.399902 8.41474 0.520903 8.6054 0.762906C9.47074 1.89673 10.0083 2.65934 10.218 3.05072C10.4277 3.44211 10.5319 3.89026 10.5304 4.39518C10.5304 5.13762 10.2767 5.76802 9.7692 6.28638C9.26027 6.80624 8.64281 7.06617 7.91681 7.06617ZM28.9026 7.06617C28.1766 7.06617 27.5562 6.80624 27.0414 6.28638C26.5266 5.76802 26.2692 5.13762 26.2692 4.39518C26.2692 3.89175 26.3733 3.4436 26.5816 3.05072C26.7899 2.65784 27.3274 1.89524 28.1942 0.762906C28.379 0.520903 28.61 0.399902 28.8872 0.399902C29.1644 0.399902 29.3991 0.520903 29.5912 0.762906C30.4565 1.89673 30.9933 2.65934 31.2016 3.05072C31.4099 3.44211 31.514 3.89026 31.514 4.39518C31.514 5.13762 31.2603 5.76802 30.7528 6.28638C30.2453 6.80624 29.6286 7.06617 28.9026 7.06617ZM3.5058 40.505V43.6085C3.5058 43.9909 3.37381 44.3158 3.10981 44.5832C2.84581 44.8521 2.5246 44.9866 2.1462 44.9866C1.76927 44.9866 1.45027 44.8521 1.1892 44.5832C0.929605 44.3173 0.799805 43.9924 0.799805 43.6085V28.0195C0.799805 27.8164 0.811538 27.6124 0.835004 27.4078C0.857004 27.2031 0.901005 27 0.967005 26.7983L4.7224 16.0404C4.95707 15.3234 5.38094 14.7408 5.994 14.2926C6.60707 13.8445 7.2942 13.6189 8.0554 13.6159H28.7442C29.5039 13.6159 30.1911 13.84 30.8056 14.2881C31.4201 14.7363 31.844 15.3189 32.0772 16.0359L35.8326 26.7961C35.8986 26.9977 35.9426 27.2009 35.9646 27.4056C35.9881 27.6102 35.9998 27.8141 35.9998 28.0173V43.6085C35.9998 43.9909 35.8678 44.3166 35.6038 44.5855C35.3398 44.8529 35.0186 44.9866 34.6402 44.9866C34.2633 44.9866 33.9443 44.8521 33.6832 44.5832C33.4221 44.3158 33.2916 43.9909 33.2916 43.6085V40.505H3.5058ZM3.9128 25.1648H32.8846L29.9806 16.7619C29.8691 16.4736 29.7005 16.251 29.4746 16.0942C29.2487 15.9358 28.9811 15.8567 28.6716 15.8567H8.128C7.81707 15.8567 7.54941 15.9358 7.32501 16.0942C7.09914 16.251 6.92974 16.4736 6.8168 16.7619L3.9128 25.1648ZM8.3392 35.3334C9.02267 35.3334 9.60054 35.0899 10.0728 34.6029C10.5465 34.1144 10.7834 33.5213 10.7834 32.8237C10.7834 32.1276 10.5436 31.539 10.064 31.058C9.58441 30.5755 9.00287 30.3342 8.31941 30.3342C7.63447 30.3342 7.05514 30.5785 6.5814 31.067C6.1106 31.5554 5.87521 32.1477 5.87521 32.8439C5.87521 33.5415 6.11427 34.1316 6.5924 34.6141C7.072 35.0936 7.65574 35.3334 8.3392 35.3334ZM28.478 35.3334C29.1615 35.3334 29.7393 35.0899 30.2116 34.6029C30.6839 34.1144 30.92 33.5213 30.92 32.8237C30.92 32.1276 30.6809 31.539 30.2028 31.058C29.7232 30.5755 29.1417 30.3342 28.4582 30.3342C27.7733 30.3342 27.1939 30.5785 26.7202 31.067C26.2494 31.5554 26.014 32.1477 26.014 32.8439C26.014 33.5415 26.2531 34.1316 26.7312 34.6141C27.2108 35.0936 27.7931 35.3334 28.478 35.3334ZM2.9976 38.2643H33.7998V27.4056H2.9976V38.2643Z" fill="white"/>
</svg>
