<svg width="25" height="25" viewBox="0 0 25 25" fill="none" xmlns="http://www.w3.org/2000/svg">
<path d="M11.3223 22.1235L11.3208 22.1221C8.10828 19.0494 5.52278 16.5708 3.72831 14.2552C1.94668 11.9561 1.04 9.93476 1.04 7.79356C1.04 4.27485 3.62552 1.6401 6.82 1.6401C8.64203 1.6401 10.4245 2.54047 11.5933 3.97694L12.4 4.9683L13.2067 3.97694C14.3755 2.54047 16.158 1.6401 17.98 1.6401C21.1745 1.6401 23.76 4.27485 23.76 7.79356C23.76 9.93476 22.8533 11.9561 21.0717 14.2552C19.2772 16.5708 16.6917 19.0494 13.4792 22.1221L13.4777 22.1235L12.4 23.1583L11.3223 22.1235Z" stroke="white" stroke-width="2.08"/>
</svg>
